<svg width="111.000107" height="112.736816" viewBox="0 0 111 112.737" fill="none" xmlns="http://www.w3.org/2000/svg" xmlns:xlink="http://www.w3.org/1999/xlink">
	<desc>
			Created with Pixso.
	</desc>
	<defs>
		<filter id="filter_1_74_dd" x="20.550354" y="5.489990" width="79.303207" height="50.297974" filterUnits="userSpaceOnUse" color-interpolation-filters="sRGB">
			<feFlood flood-opacity="0" result="BackgroundImageFix"/>
			<feGaussianBlur in="BackgroundImage" stdDeviation="9.33333"/>
			<feComposite in2="SourceAlpha" operator="in" result="effect_backgroundBlur_1"/>
			<feBlend mode="normal" in="SourceGraphic" in2="effect_backgroundBlur_1" result="shape"/>
		</filter>
		<filter id="filter_1_75_dd" x="1.781593" y="1.486328" width="95.769150" height="101.483154" filterUnits="userSpaceOnUse" color-interpolation-filters="sRGB">
			<feFlood flood-opacity="0" result="BackgroundImageFix"/>
			<feBlend mode="normal" in="SourceGraphic" in2="BackgroundImageFix" result="shape"/>
			<feGaussianBlur stdDeviation="6.33333" result="effect_layerBlur_1"/>
		</filter>
		<filter id="filter_1_77_dd" x="29.154419" y="28.627930" width="81.845688" height="84.108887" filterUnits="userSpaceOnUse" color-interpolation-filters="sRGB">
			<feFlood flood-opacity="0" result="BackgroundImageFix"/>
			<feGaussianBlur in="BackgroundImage" stdDeviation="8"/>
			<feComposite in2="SourceAlpha" operator="in" result="effect_backgroundBlur_1"/>
			<feBlend mode="normal" in="SourceGraphic" in2="effect_backgroundBlur_1" result="shape"/>
		</filter>
		<filter id="filter_1_86_dd" x="29.147133" y="28.627930" width="81.859207" height="27.581665" filterUnits="userSpaceOnUse" color-interpolation-filters="sRGB">
			<feFlood flood-opacity="0" result="BackgroundImageFix"/>
			<feGaussianBlur in="BackgroundImage" stdDeviation="9.33333"/>
			<feComposite in2="SourceAlpha" operator="in" result="effect_backgroundBlur_1"/>
			<feBlend mode="normal" in="SourceGraphic" in2="effect_backgroundBlur_1" result="shape"/>
		</filter>
		<filter id="filter_1_87_dd" x="45.312134" y="18.018555" width="59.529800" height="40.360718" filterUnits="userSpaceOnUse" color-interpolation-filters="sRGB">
			<feFlood flood-opacity="0" result="BackgroundImageFix"/>
			<feGaussianBlur in="BackgroundImage" stdDeviation="5"/>
			<feComposite in2="SourceAlpha" operator="in" result="effect_backgroundBlur_1"/>
			<feColorMatrix in="SourceAlpha" type="matrix" values="0 0 0 0 0 0 0 0 0 0 0 0 0 0 0 0 0 0 127 0" result="hardAlpha"/>
			<feOffset dx="5" dy="5"/>
			<feGaussianBlur stdDeviation="3.33333"/>
			<feComposite in2="hardAlpha" operator="out" k2="-1" k3="1"/>
			<feColorMatrix type="matrix" values="0 0 0 0 1 0 0 0 0 0.53725 0 0 0 0 0.16078 0 0 0 0.2 0"/>
			<feBlend mode="normal" in2="effect_backgroundBlur_1" result="effect_dropShadow_2"/>
			<feBlend mode="normal" in="SourceGraphic" in2="effect_dropShadow_2" result="shape"/>
		</filter>
		<filter id="filter_1_88_dd" x="45.312134" y="18.019043" width="26.748764" height="40.360596" filterUnits="userSpaceOnUse" color-interpolation-filters="sRGB">
			<feFlood flood-opacity="0" result="BackgroundImageFix"/>
			<feGaussianBlur in="BackgroundImage" stdDeviation="5"/>
			<feComposite in2="SourceAlpha" operator="in" result="effect_backgroundBlur_1"/>
			<feColorMatrix in="SourceAlpha" type="matrix" values="0 0 0 0 0 0 0 0 0 0 0 0 0 0 0 0 0 0 127 0" result="hardAlpha"/>
			<feOffset dx="5" dy="5"/>
			<feGaussianBlur stdDeviation="3.33333"/>
			<feComposite in2="hardAlpha" operator="out" k2="-1" k3="1"/>
			<feColorMatrix type="matrix" values="0 0 0 0 1 0 0 0 0 0.53725 0 0 0 0 0.16078 0 0 0 0.2 0"/>
			<feBlend mode="normal" in2="effect_backgroundBlur_1" result="effect_dropShadow_2"/>
			<feBlend mode="normal" in="SourceGraphic" in2="effect_dropShadow_2" result="shape"/>
		</filter>
		<filter id="filter_1_89_dd" x="78.093140" y="18.019043" width="26.748764" height="40.360596" filterUnits="userSpaceOnUse" color-interpolation-filters="sRGB">
			<feFlood flood-opacity="0" result="BackgroundImageFix"/>
			<feGaussianBlur in="BackgroundImage" stdDeviation="5"/>
			<feComposite in2="SourceAlpha" operator="in" result="effect_backgroundBlur_1"/>
			<feColorMatrix in="SourceAlpha" type="matrix" values="0 0 0 0 0 0 0 0 0 0 0 0 0 0 0 0 0 0 127 0" result="hardAlpha"/>
			<feOffset dx="5" dy="5"/>
			<feGaussianBlur stdDeviation="3.33333"/>
			<feComposite in2="hardAlpha" operator="out" k2="-1" k3="1"/>
			<feColorMatrix type="matrix" values="0 0 0 0 1 0 0 0 0 0.53725 0 0 0 0 0.16078 0 0 0 0.2 0"/>
			<feBlend mode="normal" in2="effect_backgroundBlur_1" result="effect_dropShadow_2"/>
			<feBlend mode="normal" in="SourceGraphic" in2="effect_dropShadow_2" result="shape"/>
		</filter>
		<filter id="filter_1_90_dd" x="43.380249" y="65.745605" width="63.428909" height="43.687256" filterUnits="userSpaceOnUse" color-interpolation-filters="sRGB">
			<feFlood flood-opacity="0" result="BackgroundImageFix"/>
			<feGaussianBlur in="BackgroundImage" stdDeviation="5"/>
			<feComposite in2="SourceAlpha" operator="in" result="effect_backgroundBlur_1"/>
			<feColorMatrix in="SourceAlpha" type="matrix" values="0 0 0 0 0 0 0 0 0 0 0 0 0 0 0 0 0 0 127 0" result="hardAlpha"/>
			<feOffset dx="5" dy="5"/>
			<feGaussianBlur stdDeviation="3.33333"/>
			<feComposite in2="hardAlpha" operator="out" k2="-1" k3="1"/>
			<feColorMatrix type="matrix" values="0 0 0 0 0 0 0 0 0 0.51373 0 0 0 0 0.45882 0 0 0 0.5 0"/>
			<feBlend mode="normal" in2="effect_backgroundBlur_1" result="effect_dropShadow_2"/>
			<feBlend mode="normal" in="SourceGraphic" in2="effect_dropShadow_2" result="shape"/>
		</filter>
		<filter id="filter_1_97_dd" x="34.228073" y="52.169556" width="70.068802" height="6.748779" filterUnits="userSpaceOnUse" color-interpolation-filters="sRGB">
			<feFlood flood-opacity="0" result="BackgroundImageFix"/>
			<feGaussianBlur in="BackgroundImage" stdDeviation="5"/>
			<feComposite in2="SourceAlpha" operator="in" result="effect_backgroundBlur_1"/>
			<feBlend mode="normal" in="SourceGraphic" in2="effect_backgroundBlur_1" result="shape"/>
		</filter>
		<linearGradient id="paint_linear_1_71_0" x1="71.684441" y1="0.000000" x2="71.684441" y2="82.108780" gradientUnits="userSpaceOnUse">
			<stop stop-color="#7DD6CC"/>
			<stop offset="1.000000" stop-color="#00B3A0"/>
		</linearGradient>
		<linearGradient id="paint_linear_1_77_0" x1="42.864552" y1="39.193718" x2="93.705063" y2="104.140457" gradientUnits="userSpaceOnUse">
			<stop stop-color="#FFFFFF" stop-opacity="0.250980"/>
			<stop offset="1.000000" stop-color="#FFFFFF" stop-opacity="0.000000"/>
		</linearGradient>
		<linearGradient id="paint_linear_1_87_0" x1="87.458626" y1="40.219627" x2="40.746216" y2="21.208706" gradientUnits="userSpaceOnUse">
			<stop stop-color="#FFFFFF"/>
			<stop offset="1.000000" stop-color="#FFFFFF" stop-opacity="0.200000"/>
		</linearGradient>
		<linearGradient id="paint_linear_1_87_1" x1="86.372345" y1="26.097214" x2="94.519867" y2="53.255692" gradientUnits="userSpaceOnUse">
			<stop stop-color="#FFFFFF" stop-opacity="0.250980"/>
			<stop offset="1.000000" stop-color="#FFFFFF" stop-opacity="0.000000"/>
		</linearGradient>
		<linearGradient id="paint_linear_1_90_0" x1="88.730072" y1="75.023064" x2="13.043571" y2="107.571625" gradientUnits="userSpaceOnUse">
			<stop stop-color="#FFFFFF"/>
			<stop offset="1.000000" stop-color="#FFFFFF" stop-opacity="0.200000"/>
		</linearGradient>
		<linearGradient id="paint_linear_1_90_1" x1="55.293427" y1="73.505203" x2="82.946106" y2="92.241440" gradientUnits="userSpaceOnUse">
			<stop stop-color="#FFFFFF" stop-opacity="0.250980"/>
			<stop offset="1.000000" stop-color="#FFFFFF" stop-opacity="0.000000"/>
		</linearGradient>
		<linearGradient id="paint_linear_1_97_0" x1="53.139923" y1="55.448723" x2="25.981535" y2="55.448723" gradientUnits="userSpaceOnUse">
			<stop stop-color="#FFFFFF"/>
			<stop offset="1.000000" stop-color="#FFFFFF" stop-opacity="0.200000"/>
		</linearGradient>
	</defs>
	<path id="Union" d="M26.1639 15.1616C25.1406 16.5361 22.9395 21.2168 21.8798 23.5959L95.4815 54.4703C96.4379 52.0431 98.2503 47.156 98.5008 45.5052C100.147 36.1423 95.7941 27.8271 86.8039 23.0891L50.3526 7.79858C40.6089 4.63013 31.7225 7.34814 26.1639 15.1616ZM8.80254 54.7324L21.8657 23.5911L95.4957 54.4772L82.3279 85.868C76.9416 98.7084 65.5476 103.213 52.6159 97.7882L20.9736 84.5149C8.16312 79.1412 3.38029 67.6586 8.80254 54.7324Z" clip-rule="evenodd" fill="url(#paint_linear_1_71_0)" fill-opacity="1.000000" fill-rule="evenodd"/>
	<g opacity="0.500000" filter="url(#filter_1_75_dd)">
		<path id="Path" d="M70.5532 29.8643L50.139 21.6245C42.7342 18.6357 36.5214 21.6064 33.2633 29.6785L22.2283 57.0176C18.9168 65.222 21.3694 71.5673 28.7742 74.556L49.1884 82.7959C56.7125 85.8329 62.7608 82.9188 66.0724 74.7145L77.1073 47.3752C80.3654 39.3032 78.0773 32.9014 70.5532 29.8643Z" fill="#00B3A0" fill-opacity="1.000000" fill-rule="nonzero"/>
	</g>
	<g filter="url(#filter_1_77_dd)">
		<mask id="mask_1_77" fill="white">
			<path id="Union" d="M30.8573 45.7745C30.4454 47.438 30.2262 52.6057 30.1693 55.2096L109.984 55.2096C109.927 52.6013 109.708 47.3936 109.301 45.7745C107.197 36.5035 99.9663 30.5195 89.8432 29.6279L50.3148 29.6279C40.104 30.4751 32.9608 36.4192 30.8573 45.7745ZM30.1544 88.9808L30.1544 55.2106L110 55.2106L110 89.2515C110 103.176 101.235 111.737 87.2121 111.737L52.8986 111.737C39.0067 111.737 30.1544 102.998 30.1544 88.9808ZM52.1535 78.0687C50.1377 78.1619 48.4724 76.5605 48.3847 74.5244C48.3847 72.4839 49.9624 70.7983 51.9782 70.7052C53.9503 70.7052 55.5717 72.2621 55.6155 74.2539C55.7032 76.2988 54.1256 77.9844 52.1535 78.0687ZM70.165 78.0687C68.1491 78.1619 66.4839 76.5605 66.3962 74.5244C66.3962 72.4839 67.9738 70.7983 69.9897 70.7052C71.9617 70.7052 73.5832 72.2621 73.627 74.2539C73.7147 76.2988 72.137 77.9844 70.165 78.0687ZM84.4511 74.4801C84.4511 72.4396 86.0287 70.7983 88.0446 70.7539C90.0166 70.7539 91.5943 72.3464 91.6819 74.3026C91.7257 76.3431 90.1481 78.0288 88.1761 78.0687C86.1602 78.113 84.4949 76.5605 84.4511 74.5244L84.4511 74.4801ZM48.3409 90.6222C48.4285 92.6627 50.0938 94.264 52.1097 94.1709C54.0817 94.0867 55.6593 92.401 55.5717 90.3605C55.5279 88.3644 53.9064 86.8074 51.9344 86.8074C49.9185 86.9005 48.3409 88.5818 48.3409 90.6222ZM66.3962 90.6222C66.4839 92.6627 68.1491 94.264 70.165 94.1709C72.137 94.0867 73.7147 92.401 73.627 90.3605C73.5832 88.3644 71.9617 86.8074 69.9897 86.8074C67.9738 86.9005 66.3962 88.5818 66.3962 90.6222ZM84.4075 90.6222C84.4075 92.6627 86.029 94.3484 88.0448 94.3927C90.1045 94.3927 91.7698 92.707 91.7698 90.6222C91.7698 88.5417 90.1045 86.8562 88.0448 86.8562L88.001 86.8562C85.9851 86.9005 84.3637 88.5818 84.4075 90.6222Z" clip-rule="evenodd" fill="" fill-opacity="1.000000" fill-rule="evenodd"/>
		</mask>
		<path id="Union" d="M30.8573 45.7745C30.4454 47.438 30.2262 52.6057 30.1693 55.2096L109.984 55.2096C109.927 52.6013 109.708 47.3936 109.301 45.7745C107.197 36.5035 99.9663 30.5195 89.8432 29.6279L50.3148 29.6279C40.104 30.4751 32.9608 36.4192 30.8573 45.7745ZM30.1544 88.9808L30.1544 55.2106L110 55.2106L110 89.2515C110 103.176 101.235 111.737 87.2121 111.737L52.8986 111.737C39.0067 111.737 30.1544 102.998 30.1544 88.9808ZM52.1535 78.0687C50.1377 78.1619 48.4724 76.5605 48.3847 74.5244C48.3847 72.4839 49.9624 70.7983 51.9782 70.7052C53.9503 70.7052 55.5717 72.2621 55.6155 74.2539C55.7032 76.2988 54.1256 77.9844 52.1535 78.0687ZM70.165 78.0687C68.1491 78.1619 66.4839 76.5605 66.3962 74.5244C66.3962 72.4839 67.9738 70.7983 69.9897 70.7052C71.9617 70.7052 73.5832 72.2621 73.627 74.2539C73.7147 76.2988 72.137 77.9844 70.165 78.0687ZM84.4511 74.4801C84.4511 72.4396 86.0287 70.7983 88.0446 70.7539C90.0166 70.7539 91.5943 72.3464 91.6819 74.3026C91.7257 76.3431 90.1481 78.0288 88.1761 78.0687C86.1602 78.113 84.4949 76.5605 84.4511 74.5244L84.4511 74.4801ZM48.3409 90.6222C48.4285 92.6627 50.0938 94.264 52.1097 94.1709C54.0817 94.0867 55.6593 92.401 55.5717 90.3605C55.5279 88.3644 53.9064 86.8074 51.9344 86.8074C49.9185 86.9005 48.3409 88.5818 48.3409 90.6222ZM66.3962 90.6222C66.4839 92.6627 68.1491 94.264 70.165 94.1709C72.137 94.0867 73.7147 92.401 73.627 90.3605C73.5832 88.3644 71.9617 86.8074 69.9897 86.8074C67.9738 86.9005 66.3962 88.5818 66.3962 90.6222ZM84.4075 90.6222C84.4075 92.6627 86.029 94.3484 88.0448 94.3927C90.1045 94.3927 91.7698 92.707 91.7698 90.6222C91.7698 88.5417 90.1045 86.8562 88.0448 86.8562L88.001 86.8562C85.9851 86.9005 84.3637 88.5818 84.4075 90.6222Z" clip-rule="evenodd" fill="#00B3A0" fill-opacity="0.350000" fill-rule="evenodd" mask="url(#mask_1_77)"/>
	</g>
	<path id="Union" d="M33.8577 36.8823Q31.0103 40.5447 29.8839 45.5451Q29.3381 47.7654 29.1735 55.0068Q29.1544 55.1047 29.1544 55.2106L29.1544 88.9808Q29.1544 97.6041 33.1904 103.433Q34.2592 104.976 35.6111 106.324Q36.9574 107.666 38.4973 108.727Q44.3163 112.737 52.8986 112.737L87.2121 112.737Q96.2069 112.737 102.14 108.475Q103.425 107.552 104.566 106.428Q105.9 105.116 106.957 103.61Q111 97.8494 111 89.2515L111 55.2106Q111 55.1018 110.98 55.0013Q110.814 47.7099 110.273 45.5422Q109.205 40.8431 106.572 37.3101Q105.13 35.3746 103.218 33.7891Q102.381 33.0952 101.483 32.4924Q96.608 29.2198 89.9309 28.6318Q89.9083 28.6298 89.8856 28.6288Q89.8644 28.6279 89.8432 28.6279L50.3148 28.6279Q50.2941 28.6279 50.2734 28.6288Q50.2527 28.6296 50.2321 28.6313Q43.343 29.203 38.4055 32.6061Q37.6323 33.1391 36.9069 33.7415Q35.193 35.1647 33.8577 36.8823ZM109.301 45.7745C107.197 36.5035 99.9663 30.5195 89.8432 29.6279L50.3148 29.6279C40.104 30.4751 32.9608 36.4192 30.8573 45.7745C30.4931 47.2451 30.2797 51.4541 30.1957 54.2096L30.1957 54.2106C30.1847 54.5717 30.1759 54.9079 30.1693 55.2096L109.984 55.2096C109.978 54.9081 109.969 54.5719 109.958 54.2106L109.958 54.2096C109.874 51.4444 109.661 47.2063 109.301 45.7745ZM109.94 55.2106L30.1544 55.2106L30.1544 88.9808C30.1544 102.998 39.0067 111.737 52.8986 111.737L87.2121 111.737C101.235 111.737 110 103.176 110 89.2515L110 55.2106L109.94 55.2106ZM53.0582 76.8534Q52.623 77.0477 52.1108 77.0696L52.1074 77.0698Q51.5831 77.094 51.1267 76.9299Q50.6419 76.7556 50.2336 76.3689Q49.8666 76.0214 49.6575 75.5962Q49.4144 75.1018 49.3848 74.5025Q49.3902 73.14 50.0739 72.4395Q50.7275 71.7699 52.0007 71.7052Q53.2794 71.7108 53.9332 72.3528Q54.5876 72.9955 54.6158 74.2759Q54.6423 74.8968 54.4304 75.4216Q54.2559 75.8539 53.9196 76.2209Q53.535 76.6406 53.0582 76.8534ZM51.9782 70.7052C49.9624 70.7983 48.3847 72.4839 48.3847 74.5244C48.4724 76.5605 50.1377 78.1619 52.1535 78.0687C54.1256 77.9844 55.7032 76.2988 55.6155 74.2539C55.5717 72.2621 53.9503 70.7052 51.9782 70.7052ZM71.0696 76.8535Q70.6344 77.0477 70.1223 77.0696L70.1188 77.0698Q69.5946 77.094 69.1381 76.9299Q68.6534 76.7556 68.2451 76.3689Q67.8781 76.0214 67.669 75.5962Q67.4259 75.1019 67.3963 74.5025Q67.4017 73.14 68.0854 72.4395Q68.7389 71.7699 70.0122 71.7052Q71.2909 71.7108 71.9446 72.3528Q72.5991 72.9955 72.6273 74.2759Q72.6538 74.8969 72.4419 75.4216Q72.2674 75.8539 71.9311 76.2209Q71.5465 76.6407 71.0696 76.8535ZM69.9897 70.7052C67.9738 70.7983 66.3962 72.4839 66.3962 74.5244C66.4839 76.5605 68.1491 78.1619 70.165 78.0687C72.137 77.9844 73.7147 76.2988 73.627 74.2539C73.5832 72.2621 71.9617 70.7052 69.9897 70.7052ZM88.0446 70.7539C86.0287 70.7983 84.4511 72.4396 84.4511 74.4801L84.4511 74.5244C84.4949 76.5605 86.1602 78.113 88.1761 78.0687C90.1481 78.0288 91.7257 76.3431 91.6819 74.3026C91.5943 72.3464 90.0166 70.7539 88.0446 70.7539ZM90.6824 74.3355Q90.6194 72.9967 89.9183 72.3521Q89.2674 71.7538 88.0666 71.7537Q86.7855 71.7819 86.1319 72.4366Q85.4511 73.1185 85.4511 74.4801L85.4509 74.5029Q85.4635 75.0909 85.6927 75.5767Q85.8937 76.0027 86.2611 76.3501Q86.6202 76.6896 87.0466 76.8689Q87.5536 77.0822 88.1558 77.069Q88.6407 77.0591 89.0587 76.8871Q89.5528 76.6837 89.9536 76.2539Q90.3069 75.875 90.489 75.4266Q90.693 74.9246 90.6824 74.3355ZM48.3409 90.6222C48.4285 92.6627 50.0938 94.264 52.1097 94.1709C54.0817 94.0867 55.6593 92.401 55.5717 90.3605C55.5279 88.3644 53.9064 86.8074 51.9344 86.8074C49.9185 86.9005 48.3409 88.5818 48.3409 90.6222ZM49.3409 90.6003Q49.3708 91.2056 49.6172 91.7038Q49.8259 92.1257 50.1901 92.4708Q50.5979 92.8574 51.0822 93.0318Q51.5389 93.1962 52.0635 93.172Q52.5829 93.1498 53.0229 92.9516Q53.4951 92.7389 53.876 92.3235Q54.2386 91.928 54.4133 91.462Q54.597 90.9717 54.5726 90.4034Q54.5438 89.0974 53.8763 88.4484Q53.2227 87.813 51.9569 87.8074Q50.6813 87.8723 50.0277 88.5431Q49.3464 89.2425 49.3409 90.6003ZM66.3962 90.6222C66.4839 92.6627 68.1491 94.264 70.165 94.1709C72.137 94.0867 73.7147 92.401 73.627 90.3605C73.5832 88.3644 71.9617 86.8074 69.9897 86.8074C67.9738 86.9005 66.3962 88.5818 66.3962 90.6222ZM67.3963 90.6003Q67.4261 91.2056 67.6725 91.7038Q67.8812 92.1257 68.2454 92.4708Q68.6533 92.8574 69.1375 93.0318Q69.5942 93.1962 70.1188 93.172Q70.6382 93.1498 71.0782 92.9516Q71.5504 92.7389 71.9313 92.3235Q72.294 91.928 72.4686 91.462Q72.6524 90.9717 72.6279 90.4034Q72.5992 89.0974 71.9316 88.4484Q71.278 87.813 70.0122 87.8074Q68.7366 87.8723 68.083 88.5431Q67.4017 89.2424 67.3963 90.6003ZM88.0448 94.3927C86.029 94.3484 84.4075 92.6627 84.4075 90.6222C84.3637 88.5818 85.9851 86.9005 88.001 86.8562L88.0448 86.8562C90.1045 86.8562 91.7698 88.5417 91.7698 90.6222C91.7698 92.707 90.1045 94.3927 88.0448 94.3927ZM86.0991 92.6983Q85.4075 92.0053 85.4075 90.6222L85.4073 90.6007Q85.3781 89.2404 86.0437 88.554Q86.6924 87.8851 88.001 87.8562L88.0448 87.8562Q89.3869 87.8562 90.068 88.5272Q90.7698 89.2185 90.7698 90.6222Q90.7698 91.2208 90.5538 91.7273Q90.3537 92.1964 89.9683 92.5865Q89.5362 93.0239 89.0133 93.224Q88.5723 93.3928 88.0668 93.3929Q86.7637 93.3643 86.0991 92.6983Z" clip-rule="evenodd" fill="url(#paint_linear_1_77_0)" fill-opacity="1.000000" fill-rule="evenodd"/>
	<g filter="url(#filter_1_87_dd)">
		<mask id="mask_1_87" fill="white">
			<path id="Union" d="M89.8419 39.9636C89.8419 41.9198 88.3519 43.3792 86.4676 43.3792C84.5393 43.3792 83.0932 41.9198 83.0932 39.9636L83.0932 26.4387C83.0932 24.4824 84.5393 23.0186 86.4676 23.0186C88.3519 23.0186 89.8419 24.4824 89.8419 26.4387L89.8419 39.9636ZM57.0609 39.9636C57.0609 41.9198 55.6147 43.3793 53.6865 43.3793C51.7583 43.3793 50.3121 41.9198 50.3121 39.9636L50.3121 26.4387C50.3121 24.4824 51.7583 23.0186 53.6865 23.0186C55.6147 23.0186 57.0609 24.4824 57.0609 26.4387L57.0609 39.9636Z" clip-rule="evenodd" fill="" fill-opacity="1.000000" fill-rule="evenodd"/>
		</mask>
		<path id="Union" d="M89.8419 39.9636C89.8419 41.9198 88.3519 43.3792 86.4676 43.3792C84.5393 43.3792 83.0932 41.9198 83.0932 39.9636L83.0932 26.4387C83.0932 24.4824 84.5393 23.0186 86.4676 23.0186C88.3519 23.0186 89.8419 24.4824 89.8419 26.4387L89.8419 39.9636ZM57.0609 39.9636C57.0609 41.9198 55.6147 43.3793 53.6865 43.3793C51.7583 43.3793 50.3121 41.9198 50.3121 39.9636L50.3121 26.4387C50.3121 24.4824 51.7583 23.0186 53.6865 23.0186C55.6147 23.0186 57.0609 24.4824 57.0609 26.4387L57.0609 39.9636Z" clip-rule="evenodd" fill="url(#paint_linear_1_87_0)" fill-opacity="1.000000" fill-rule="evenodd" mask="url(#mask_1_87)"/>
	</g>
	<path id="Union" d="M53.6865 43.3793C55.6147 43.3793 57.0609 41.9198 57.0609 39.9636L57.0609 26.4387C57.0609 24.4824 55.6147 23.0186 53.6865 23.0186C51.7583 23.0186 50.3121 24.4824 50.3121 26.4387L50.3121 39.9636C50.3121 41.9198 51.7583 43.3793 53.6865 43.3793ZM86.4676 43.3792C88.3519 43.3792 89.8419 41.9198 89.8419 39.9636L89.8419 26.4387C89.8419 24.4824 88.3519 23.0186 86.4676 23.0186C84.5393 23.0186 83.0932 24.4824 83.0932 26.4387L83.0932 39.9636C83.0932 41.9198 84.5393 43.3792 86.4676 43.3792ZM89.4419 26.4387L89.4419 39.9636Q89.4419 40.4852 89.2883 40.9568Q89.253 41.0651 89.2097 41.1707Q89.0808 41.4843 88.8896 41.7537Q88.7505 41.9498 88.5782 42.1224Q88.3919 42.3092 88.1785 42.4568Q87.9265 42.6312 87.6369 42.751Q87.4823 42.8149 87.3226 42.8609Q86.9121 42.9792 86.4676 42.9792Q85.931 42.9792 85.4505 42.8152Q85.3639 42.7856 85.2791 42.7507Q84.9722 42.6244 84.709 42.4368Q84.5133 42.2973 84.3417 42.1238Q84.1952 41.9756 84.0731 41.8096Q83.8594 41.5189 83.7204 41.1732Q83.6956 41.1117 83.6735 41.0492Q83.4932 40.5382 83.4932 39.9636L83.4932 26.4387Q83.4932 25.8657 83.6724 25.3557Q83.695 25.2914 83.7204 25.228Q83.8592 24.8827 84.0724 24.592Q84.1949 24.4249 84.342 24.2759Q84.5158 24.0998 84.7144 23.9586Q84.9755 23.7731 85.2794 23.6477Q85.3684 23.611 85.4594 23.5801Q85.9361 23.4185 86.4676 23.4185Q86.9075 23.4185 87.3142 23.5348Q87.4781 23.5817 87.6366 23.6475Q87.9217 23.7656 88.1703 23.9368Q88.3881 24.0867 88.578 24.2773Q88.7483 24.4482 88.8863 24.6421Q89.0797 24.9138 89.2096 25.2307Q89.254 25.3388 89.2898 25.4497Q89.4419 25.9196 89.4419 26.4387ZM56.6609 26.4387L56.6609 39.9636Q56.6609 40.5376 56.481 41.0481Q56.4587 41.1112 56.4337 41.1733Q56.2949 41.5183 56.0817 41.8085Q55.9593 41.9751 55.8124 42.1238Q55.6408 42.2973 55.445 42.4369Q55.1818 42.6245 54.875 42.7507Q54.7902 42.7856 54.7037 42.8152Q54.2231 42.9792 53.6865 42.9792Q53.15 42.9792 52.6695 42.8152Q52.5828 42.7856 52.498 42.7507Q52.1912 42.6245 51.928 42.4369Q51.7322 42.2973 51.5607 42.1238Q51.4137 41.9751 51.2913 41.8085Q51.0781 41.5182 50.9393 41.1733Q50.9143 41.1112 50.8921 41.0481Q50.7121 40.5376 50.7121 39.9636L50.7121 26.4387Q50.7121 25.8675 50.8903 25.3588Q50.9134 25.293 50.9394 25.2283Q51.0791 24.8806 51.2941 24.5884Q51.4155 24.4234 51.5609 24.2761Q51.7356 24.0991 51.9353 23.9574Q52.1956 23.7726 52.4984 23.6477Q52.5865 23.6113 52.6766 23.5808Q53.1541 23.4187 53.6865 23.4187Q54.219 23.4187 54.6964 23.5808Q54.7865 23.6113 54.8747 23.6477Q55.1774 23.7726 55.4377 23.9573Q55.6374 24.0991 55.8121 24.2761Q55.9575 24.4234 56.0789 24.5884Q56.294 24.8806 56.4337 25.2283Q56.4597 25.293 56.4827 25.3588Q56.6609 25.8675 56.6609 26.4387Z" clip-rule="evenodd" fill="url(#paint_linear_1_87_1)" fill-opacity="1.000000" fill-rule="evenodd"/>
	<g filter="url(#filter_1_90_dd)">
		<mask id="mask_1_90" fill="white">
			<path id="Union" d="M48.4251 74.5649C48.5127 76.601 50.178 78.2023 52.1939 78.1091C54.1659 78.0249 55.7435 76.3392 55.6559 74.2943C55.6121 72.3026 53.9906 70.7456 52.0186 70.7456C50.0027 70.8387 48.4251 72.5244 48.4251 74.5649ZM66.4356 74.5649C66.5232 76.601 68.1885 78.2023 70.2044 78.1091C72.1764 78.0249 73.7541 76.3392 73.6664 74.2943C73.6226 72.3026 72.0011 70.7456 70.0291 70.7456C68.0132 70.8387 66.4356 72.5244 66.4356 74.5649ZM88.084 70.7946C86.0681 70.8389 84.4905 72.4802 84.4905 74.5206L84.4905 74.5651C84.5343 76.6011 86.1996 78.1537 88.2155 78.1093C90.1875 78.0693 91.7651 76.3838 91.7213 74.3433C91.6337 72.387 90.056 70.7946 88.084 70.7946ZM52.149 94.2115C50.1332 94.3047 48.4679 92.7034 48.3802 90.6628C48.3802 88.6223 49.9579 86.9412 51.9737 86.848C53.9458 86.848 55.5672 88.4049 55.6111 90.4011C55.6987 92.4417 54.1211 94.1272 52.149 94.2115ZM70.2044 94.2115C68.1885 94.3047 66.5232 92.7034 66.4356 90.6628C66.4356 88.6223 68.0132 86.9412 70.0291 86.848C72.0011 86.848 73.6226 88.4049 73.6664 90.4011C73.7541 92.4417 72.1764 94.1272 70.2044 94.2115ZM88.0842 94.4329C86.0683 94.3885 84.4469 92.7029 84.4469 90.6624C84.4031 88.6219 86.0245 86.9407 88.0404 86.8964L88.0842 86.8964C90.1439 86.8964 91.8092 88.582 91.8092 90.6624C91.8092 92.7473 90.1439 94.4329 88.0842 94.4329Z" clip-rule="evenodd" fill="" fill-opacity="1.000000" fill-rule="evenodd"/>
		</mask>
		<path id="Union" d="M48.4251 74.5649C48.5127 76.601 50.178 78.2023 52.1939 78.1091C54.1659 78.0249 55.7435 76.3392 55.6559 74.2943C55.6121 72.3026 53.9906 70.7456 52.0186 70.7456C50.0027 70.8387 48.4251 72.5244 48.4251 74.5649ZM66.4356 74.5649C66.5232 76.601 68.1885 78.2023 70.2044 78.1091C72.1764 78.0249 73.7541 76.3392 73.6664 74.2943C73.6226 72.3026 72.0011 70.7456 70.0291 70.7456C68.0132 70.8387 66.4356 72.5244 66.4356 74.5649ZM88.084 70.7946C86.0681 70.8389 84.4905 72.4802 84.4905 74.5206L84.4905 74.5651C84.5343 76.6011 86.1996 78.1537 88.2155 78.1093C90.1875 78.0693 91.7651 76.3838 91.7213 74.3433C91.6337 72.387 90.056 70.7946 88.084 70.7946ZM52.149 94.2115C50.1332 94.3047 48.4679 92.7034 48.3802 90.6628C48.3802 88.6223 49.9579 86.9412 51.9737 86.848C53.9458 86.848 55.5672 88.4049 55.6111 90.4011C55.6987 92.4417 54.1211 94.1272 52.149 94.2115ZM70.2044 94.2115C68.1885 94.3047 66.5232 92.7034 66.4356 90.6628C66.4356 88.6223 68.0132 86.9412 70.0291 86.848C72.0011 86.848 73.6226 88.4049 73.6664 90.4011C73.7541 92.4417 72.1764 94.1272 70.2044 94.2115ZM88.0842 94.4329C86.0683 94.3885 84.4469 92.7029 84.4469 90.6624C84.4031 88.6219 86.0245 86.9407 88.0404 86.8964L88.0842 86.8964C90.1439 86.8964 91.8092 88.582 91.8092 90.6624C91.8092 92.7473 90.1439 94.4329 88.0842 94.4329Z" clip-rule="evenodd" fill="url(#paint_linear_1_90_0)" fill-opacity="1.000000" fill-rule="evenodd" mask="url(#mask_1_90)"/>
	</g>
	<path id="Union" d="M48.4251 74.5649C48.4251 72.5244 50.0027 70.8387 52.0186 70.7456C53.9906 70.7456 55.6121 72.3026 55.6559 74.2943C55.7435 76.3392 54.1659 78.0249 52.1939 78.1091C50.178 78.2023 48.5127 76.601 48.4251 74.5649ZM52.0266 71.1456Q51.6707 71.1631 51.3339 71.2528Q51.0486 71.3288 50.777 71.4567Q50.5316 71.5721 50.3107 71.7234Q50.0116 71.9283 49.7574 72.1989Q49.542 72.4282 49.3743 72.6882Q49.1979 72.9618 49.0742 73.2695Q48.9682 73.5333 48.9073 73.8071Q48.826 74.1727 48.8251 74.5562Q48.8431 74.9536 48.9479 75.3266Q49.0192 75.5808 49.1309 75.8237Q49.2817 76.1519 49.494 76.434Q49.6591 76.6535 49.8614 76.845Q50.14 77.1088 50.4633 77.2951Q50.6768 77.4182 50.9099 77.5074Q51.1669 77.6059 51.433 77.6572Q51.7958 77.7271 52.1754 77.7096Q52.5132 77.6952 52.8334 77.6127Q53.1277 77.537 53.4071 77.4039Q53.6593 77.2839 53.8839 77.1249Q54.1646 76.9262 54.4023 76.6667Q54.626 76.4227 54.7932 76.1447Q54.9479 75.8877 55.0544 75.6017Q55.1469 75.353 55.1977 75.0961Q55.2735 74.7129 55.2563 74.3114Q55.2463 73.8612 55.1223 73.4449Q55.0641 73.2496 54.9807 73.0618Q54.8635 72.7975 54.7038 72.5621Q54.5207 72.2921 54.2817 72.0601Q54.0555 71.8405 53.7965 71.6714Q53.5441 71.5067 53.2604 71.3899Q53.0078 71.2859 52.7451 71.2261Q52.3948 71.1465 52.0266 71.1456ZM66.4356 74.5649C66.4356 72.5244 68.0132 70.8387 70.0291 70.7456C72.0011 70.7456 73.6226 72.3026 73.6664 74.2943C73.7541 76.3392 72.1764 78.0249 70.2044 78.1091C68.1885 78.2023 66.5232 76.601 66.4356 74.5649ZM70.0371 71.1456Q69.6811 71.1631 69.3444 71.2528Q69.059 71.3288 68.7875 71.4567Q68.5421 71.5721 68.3213 71.7234Q68.0221 71.9283 67.7679 72.1989Q67.5525 72.4282 67.3848 72.6883Q67.2084 72.9619 67.0848 73.2695Q66.9788 73.5333 66.9178 73.8071Q66.8365 74.1728 66.8356 74.5564Q66.8537 74.9537 66.9584 75.3266Q67.0298 75.5808 67.1414 75.8237Q67.2923 76.152 67.5045 76.4341Q67.6697 76.6535 67.8719 76.845Q68.1505 77.1088 68.4738 77.2951Q68.6874 77.4182 68.9204 77.5074Q69.1774 77.6058 69.4435 77.6572Q69.8063 77.7271 70.1859 77.7096Q70.5237 77.6952 70.844 77.6127Q71.1382 77.537 71.4176 77.4039Q71.6698 77.2839 71.8944 77.1249Q72.1751 76.9262 72.4129 76.6667Q72.6365 76.4227 72.8038 76.1447Q72.9584 75.8877 73.0649 75.6017Q73.1575 75.353 73.2083 75.0961Q73.284 74.7129 73.2668 74.3114Q73.2568 73.8612 73.1328 73.4449Q73.0746 73.2496 72.9913 73.0618Q72.874 72.7975 72.7143 72.5621Q72.5312 72.2921 72.2922 72.0601Q72.0661 71.8405 71.807 71.6714Q71.5546 71.5067 71.2709 71.3899Q71.0183 71.2859 70.7557 71.2262Q70.4054 71.1465 70.0371 71.1456ZM84.4905 74.5206C84.4905 72.4802 86.0681 70.8389 88.084 70.7946C90.056 70.7946 91.6337 72.387 91.7213 74.3433C91.7651 76.3838 90.1875 78.0693 88.2155 78.1093C86.1996 78.1537 84.5343 76.6011 84.4905 74.5651L84.4905 74.5206ZM91.3215 74.3565Q91.3055 74.0091 91.2215 73.679Q91.1498 73.397 91.0286 73.1277Q90.8904 72.8207 90.6982 72.5523Q90.5332 72.322 90.3285 72.1201Q90.0598 71.8553 89.7465 71.6631Q89.5411 71.5372 89.3166 71.4425Q89.0585 71.3337 88.7896 71.2727Q88.4473 71.1949 88.0874 71.1946L88.084 71.1947Q87.6836 71.2045 87.3079 71.3058Q87.0662 71.3709 86.8347 71.474Q86.5705 71.5916 86.3349 71.7514Q86.0572 71.9396 85.8194 72.1865Q85.6166 72.397 85.4563 72.636Q85.2686 72.9157 85.1391 73.2345Q85.0505 73.4524 84.9935 73.6782Q84.8905 74.0864 84.8905 74.5206L84.8905 74.5651Q84.8986 74.9384 84.9879 75.2913Q85.0563 75.5617 85.1724 75.8201Q85.2958 76.0946 85.4652 76.3371Q85.6495 76.6009 85.8883 76.8267Q86.1049 77.0315 86.3511 77.1906Q86.6244 77.3673 86.9341 77.4877Q87.1626 77.5765 87.3991 77.6299Q87.7919 77.7185 88.2067 77.7094Q88.5384 77.7027 88.8542 77.6281Q89.1512 77.5579 89.434 77.4276Q89.6512 77.3276 89.8487 77.1976Q90.1656 76.9892 90.4318 76.7037Q90.6325 76.4885 90.7898 76.2451Q90.9723 75.9627 91.0963 75.6425Q91.1947 75.3883 91.2503 75.1251Q91.3294 74.75 91.3215 74.3565ZM52.7705 93.7198Q52.4593 93.7979 52.132 93.8119L52.1306 93.8119Q51.7502 93.8295 51.3869 93.7593Q51.1215 93.708 50.8651 93.6097Q50.6323 93.5206 50.419 93.3976Q50.0955 93.2112 49.8167 92.947Q49.6155 92.7563 49.451 92.5378Q49.2376 92.2544 49.0862 91.9244Q48.9764 91.6852 48.9055 91.4349Q48.7985 91.0572 48.7803 90.6543Q48.7812 90.2668 48.8642 89.8979Q48.9248 89.6281 49.0294 89.3683Q49.1528 89.0613 49.329 88.7883Q49.4968 88.5283 49.7124 88.2992Q49.9632 88.0326 50.258 87.8299Q50.4822 87.6757 50.7319 87.5585Q51.0002 87.4324 51.282 87.3569Q51.6232 87.2654 51.9841 87.2479Q52.3519 87.2491 52.7018 87.3288Q52.9637 87.3885 53.2155 87.4923Q53.499 87.6091 53.7512 87.7738Q54.0105 87.943 54.2367 88.1628Q54.4732 88.3927 54.6551 88.6598Q54.8172 88.8979 54.9358 89.1658Q55.038 89.3965 55.1024 89.6373Q55.2024 90.0114 55.2112 90.4099Q55.2306 90.8637 55.1335 91.2911Q55.0857 91.5016 55.0096 91.7057Q54.9043 91.988 54.752 92.2422Q54.5836 92.5231 54.3576 92.7695Q54.1201 93.0286 53.8397 93.227Q53.6148 93.3862 53.3623 93.5063Q53.0741 93.6436 52.7705 93.7198ZM51.9737 86.848C53.9458 86.848 55.5672 88.4049 55.6111 90.4011C55.6987 92.4417 54.1211 94.1272 52.149 94.2115C50.1332 94.3047 48.4679 92.7034 48.3802 90.6628C48.3802 88.6223 49.9579 86.9412 51.9737 86.848ZM70.8261 93.7197Q70.5147 93.7979 70.1873 93.8119L70.1859 93.8119Q69.8056 93.8295 69.4423 93.7593Q69.1768 93.708 68.9205 93.6097Q68.6877 93.5206 68.4744 93.3977Q68.1508 93.2112 67.8721 92.947Q67.6708 92.7562 67.5063 92.5378Q67.293 92.2544 67.1415 91.9244Q67.0317 91.6852 66.9608 91.4349Q66.8539 91.0572 66.8356 90.6544Q66.8365 90.2668 66.9195 89.8978Q66.9802 89.6281 67.0847 89.3683Q67.2082 89.0613 67.3844 88.7882Q67.5522 88.5283 67.7677 88.2992Q68.0186 88.0326 68.3134 87.8299Q68.5376 87.6757 68.7872 87.5585Q69.0556 87.4324 69.3375 87.3569Q69.6786 87.2654 70.0395 87.2479Q70.4074 87.2491 70.7573 87.3289Q71.0191 87.3886 71.2708 87.4923Q71.5544 87.6091 71.8067 87.7738Q72.0659 87.943 72.2921 88.1628Q72.5286 88.3926 72.7104 88.6597Q72.8725 88.8979 72.9912 89.1658Q73.0934 89.3965 73.1577 89.6373Q73.2578 90.0114 73.2665 90.4099Q73.2859 90.8637 73.1889 91.291Q73.1411 91.5016 73.065 91.7057Q72.9597 91.988 72.8074 92.2421Q72.6389 92.5231 72.413 92.7695Q72.1755 93.0285 71.8951 93.227Q71.6702 93.3862 71.4177 93.5063Q71.1295 93.6435 70.8261 93.7197ZM70.0291 86.848C72.0011 86.848 73.6226 88.4049 73.6664 90.4011C73.7541 92.4417 72.1764 94.1272 70.2044 94.2115C68.1885 94.3047 66.5232 92.7034 66.4356 90.6628C66.4356 88.6223 68.0132 86.9412 70.0291 86.848ZM84.4469 90.6624C84.4469 92.7029 86.0683 94.3885 88.0842 94.4329C90.1439 94.4329 91.8092 92.7473 91.8092 90.6624C91.8092 88.582 90.1439 86.8964 88.0842 86.8964L88.0404 86.8964C86.0245 86.9407 84.4031 88.6219 84.4469 90.6624ZM88.093 94.033L88.0925 94.033Q87.755 94.0255 87.4329 93.9512Q87.1242 93.8799 86.8297 93.7473Q86.5899 93.6393 86.3728 93.4968Q86.062 93.293 85.7976 93.0187Q85.5679 92.7804 85.3913 92.5078Q85.2221 92.2466 85.1016 91.9539Q84.9838 91.6678 84.9205 91.3702Q84.8469 91.0241 84.8469 90.6624Q84.8376 90.2288 84.9346 89.8205Q84.9894 89.59 85.078 89.3674Q85.1875 89.0925 85.3415 88.8453Q85.5207 88.5576 85.7602 88.3075Q86.0036 88.0532 86.2884 87.8595Q86.5234 87.6997 86.7865 87.5813Q87.0697 87.4538 87.3665 87.3831Q87.6993 87.3039 88.0492 87.2963L88.0842 87.2964Q88.4594 87.2964 88.8163 87.3774Q89.1031 87.4426 89.3779 87.5601Q89.64 87.6721 89.8758 87.8248Q90.1766 88.0196 90.4346 88.2805Q90.6658 88.5143 90.8446 88.783Q91.0219 89.0496 91.1477 89.3506Q91.2583 89.6153 91.3222 89.8909Q91.4091 90.2665 91.4091 90.6624Q91.4091 91.0644 91.3198 91.4455Q91.2563 91.7166 91.1476 91.9771Q91.0206 92.2815 90.8408 92.5508Q90.6634 92.8167 90.4345 93.0483Q90.1757 93.3103 89.8738 93.5056Q89.6389 93.6576 89.3779 93.7692Q89.1036 93.8865 88.8175 93.9516Q88.4643 94.032 88.093 94.033Z" clip-rule="evenodd" fill="url(#paint_linear_1_90_1)" fill-opacity="1.000000" fill-rule="evenodd"/>
	<g opacity="0.500000" filter="url(#filter_1_97_dd)">
		<path id="Fill 11" d="M34.2281 55.5439C34.2281 57.4283 35.6875 58.9183 37.6437 58.9183L100.877 58.9183C102.833 58.9183 104.297 57.4283 104.297 55.5439C104.297 53.6157 102.833 52.1696 100.877 52.1696L37.6437 52.1696C35.6875 52.1696 34.2281 53.6157 34.2281 55.5439Z" fill="url(#paint_linear_1_97_0)" fill-opacity="0.500000" fill-rule="nonzero"/>
	</g>
</svg>
