<svg width="140.000000" height="115.872925" viewBox="0 0 140 115.873" fill="none" xmlns="http://www.w3.org/2000/svg" xmlns:xlink="http://www.w3.org/1999/xlink">
	<desc>
			Created with Pixso.
	</desc>
	<defs>
		<filter id="filter_1_107_dd" x="18.534912" y="43.328125" width="67.853027" height="67.853027" filterUnits="userSpaceOnUse" color-interpolation-filters="sRGB">
			<feFlood flood-opacity="0" result="BackgroundImageFix"/>
			<feBlend mode="normal" in="SourceGraphic" in2="BackgroundImageFix" result="shape"/>
			<feGaussianBlur stdDeviation="6.66667" result="effect_layerBlur_1"/>
		</filter>
		<filter id="filter_1_110_dd" x="42.378448" y="9.754395" width="90.488739" height="92.171387" filterUnits="userSpaceOnUse" color-interpolation-filters="sRGB">
			<feFlood flood-opacity="0" result="BackgroundImageFix"/>
			<feGaussianBlur in="BackgroundImage" stdDeviation="8"/>
			<feComposite in2="SourceAlpha" operator="in" result="effect_backgroundBlur_1"/>
			<feBlend mode="normal" in="SourceGraphic" in2="effect_backgroundBlur_1" result="shape"/>
		</filter>
		<linearGradient id="paint_linear_1_106_0" x1="13.580288" y1="66.853920" x2="132.301819" y2="88.001823" gradientUnits="userSpaceOnUse">
			<stop stop-color="#FFA78F"/>
			<stop offset="1.000000" stop-color="#F23E2C"/>
		</linearGradient>
		<linearGradient id="paint_linear_1_110_0" x1="63.487000" y1="13.271667" x2="102.942886" y2="93.551041" gradientUnits="userSpaceOnUse">
			<stop stop-color="#FFFFFF" stop-opacity="0.250980"/>
			<stop offset="1.000000" stop-color="#FFFFFF" stop-opacity="0.000000"/>
		</linearGradient>
	</defs>
	<path id="Star" d="M67.9427 72.2615C67.3801 73.4216 67.4248 74.7867 68.0588 75.9103L77.0685 91.3481C77.831 92.657 77.7565 94.29 76.8792 95.5269C76.0365 96.7853 74.5449 97.4431 73.0471 97.2279L55.342 94.8911C54.7243 94.8042 54.0961 94.8657 53.5021 95.0632L52.5918 95.395C52.2932 95.5571 52.0209 95.7705 51.7951 96.0278L39.7563 109.248C39.1554 109.885 38.3701 110.32 37.5061 110.487C35.3804 110.835 33.3631 109.424 32.9605 107.307L29.9264 89.6909C29.6851 88.4128 28.8385 87.3325 27.6563 86.7931L11.2419 79.4575C9.86877 78.843 8.97739 77.4937 8.9549 75.9912C8.92017 74.4969 9.71512 73.1074 11.0228 72.3835L26.8343 63.8768C28.0563 63.2831 28.8899 62.104 29.0446 60.7539L30.9037 42.9907C30.956 42.5912 31.0684 42.2001 31.245 41.839L31.4616 41.4937C31.5558 41.2614 31.6845 41.0509 31.8432 40.8599L32.1604 40.592L32.6457 40.1488L34.0598 39.6333C35.3706 39.304 36.7579 39.6545 37.7503 40.5714L50.6766 52.8694C51.6144 53.7719 52.937 54.1536 54.2102 53.8988L71.7871 50.2358C73.2714 49.9232 74.8054 50.4675 75.762 51.641C76.693 52.8276 76.8521 54.4438 76.1714 55.7917L67.9427 72.2615Z" fill="url(#paint_linear_1_106_0)" fill-opacity="1.000000" fill-rule="nonzero"/>
	<g opacity="0.500000" filter="url(#filter_1_107_dd)">
		<path id="Blur" d="M52.4614 63.3281C44.774 63.3281 38.5349 69.5686 38.5349 77.2546C38.5349 84.9435 44.774 91.1812 52.4614 91.1812C60.1628 91.1812 66.3879 84.9435 66.3879 77.2546C66.3879 69.5686 60.1628 63.3281 52.4614 63.3281Z" clip-rule="evenodd" fill="#FF3D22" fill-opacity="1.000000" fill-rule="evenodd"/>
	</g>
	<g filter="url(#filter_1_110_dd)">
		<path id="Star" d="M108.937 69.6666C107.519 70.4854 106.593 71.9521 106.459 73.5852L104.93 96.235C104.799 98.1543 103.557 99.818 101.753 100.493C99.9702 101.216 97.9334 100.844 96.5121 99.5507L79.5643 84.4773C78.9769 83.9458 78.2725 83.5627 77.5074 83.3472L76.314 83.0472C75.8846 83.0049 75.4463 83.0352 75.0255 83.1448L52.9488 88.4637C51.8627 88.7058 50.7274 88.6031 49.7005 88.1626C47.2174 87.0143 46.1021 84.0935 47.1876 81.5806L56.5511 60.8993C57.2082 59.3837 57.088 57.6447 56.2296 56.2351L44.2008 36.8264C43.1952 35.202 43.2196 33.1482 44.2667 31.5527C45.295 29.957 47.1208 29.0627 49.0114 29.2336L71.6956 31.5581C73.4034 31.8047 75.1199 31.1592 76.2447 29.8501L90.8572 12.5007C91.1968 12.1179 91.5937 11.7869 92.0367 11.533L92.5105 11.3245C92.775 11.1475 93.0604 11.0178 93.3633 10.9302L93.8876 10.8745L94.7137 10.7544L96.5676 11.2202C98.1803 11.8081 99.3889 13.1653 99.779 14.8362L104.604 36.9762C104.947 38.5933 106.066 39.937 107.586 40.5764L128.674 49.251C130.457 49.98 131.682 51.6455 131.852 53.5608C131.985 55.4716 131 57.2842 129.324 58.2161L108.937 69.6666Z" fill="#FFAC95" fill-opacity="0.400000" fill-rule="nonzero"/>
	</g>
	<path id="Star" d="M107.456 73.667L107.456 73.6602Q107.545 72.5979 108.055 71.8076Q108.546 71.0471 109.427 70.5385L129.81 59.0901Q131.45 58.1782 132.21 56.7859Q132.98 55.3757 132.848 53.4727Q132.682 51.6035 131.73 50.3154Q130.783 49.0326 129.055 48.3262L107.973 39.6547Q106.993 39.2424 106.395 38.516Q105.8 37.7946 105.582 36.7632L100.753 14.6089Q100.382 13.019 99.4306 11.9404Q98.4677 10.8484 96.9101 10.2808Q96.886 10.272 96.8615 10.2644Q96.8366 10.2568 96.8113 10.2505L94.9574 9.78467Q94.8624 9.76074 94.7646 9.75562Q94.6667 9.75073 94.5698 9.76489L93.7629 9.88208L93.258 9.93555Q93.2143 9.94019 93.1711 9.94873Q93.1277 9.95728 93.0852 9.96948Q92.6084 10.1077 92.1898 10.3474Q92.1104 10.3928 92.033 10.4419L91.6336 10.6179Q91.6096 10.6284 91.5861 10.6404Q91.5625 10.6523 91.5395 10.6655Q91.4688 10.7058 91.3994 10.7485Q90.688 11.1846 90.1092 11.8372Q90.1039 11.843 90.0987 11.8491Q90.0955 11.8528 90.0923 11.8564L75.4862 29.1982Q74.7586 30.0452 73.8425 30.387Q72.9333 30.7263 71.8385 30.5684Q71.8271 30.5667 71.8157 30.5652Q71.8066 30.5642 71.7975 30.5632L49.1014 28.2375Q47.2613 28.0715 45.8419 28.7656Q44.4272 29.4575 43.4306 31.0039Q42.4023 32.5709 42.379 34.1528Q42.3555 35.7455 43.3509 37.3533L55.3755 56.7552Q55.9342 57.6726 55.9935 58.6212Q56.0508 59.5394 55.6401 60.4868L46.2696 81.1841Q45.7821 82.3126 45.7574 83.4512Q45.7327 84.5906 46.1716 85.74Q46.6111 86.8911 47.3903 87.7245Q48.1668 88.5551 49.2807 89.0702Q49.2847 89.072 49.2888 89.0739Q49.2974 89.0778 49.3062 89.0815Q50.1854 89.4587 51.0952 89.5596Q52.1197 89.673 53.183 89.4359L75.2775 84.1125Q75.3548 84.0924 75.4331 84.077Q75.7809 84.009 76.1474 84.0365L77.2491 84.3134Q77.8042 84.4716 78.2795 84.7609Q78.6087 84.9612 78.8997 85.2245L95.8391 100.29Q97.2455 101.57 98.8281 101.849Q100.387 102.123 102.116 101.425Q103.893 100.757 104.846 99.4755Q105.798 98.1949 105.927 96.3024L107.456 73.667ZM101.753 100.493C103.557 99.818 104.799 98.1543 104.93 96.235L106.459 73.5852C106.593 71.9521 107.519 70.4854 108.937 69.6666L129.324 58.2161C131 57.2842 131.985 55.4716 131.852 53.5608C131.682 51.6455 130.457 49.98 128.674 49.251L107.586 40.5764C106.066 39.937 104.947 38.5933 104.604 36.9762L99.779 14.8362C99.3889 13.1653 98.1803 11.8081 96.5676 11.2202L94.7137 10.7544L93.8876 10.8745L93.3633 10.9302C93.0604 11.0178 92.775 11.1475 92.5105 11.3245L92.0367 11.533C91.5937 11.7869 91.1968 12.1179 90.8572 12.5007L76.2447 29.8501C75.1199 31.1592 73.4034 31.8047 71.6956 31.5581L49.0114 29.2336C47.1208 29.0627 45.295 29.957 44.2667 31.5527C43.2196 33.1482 43.1952 35.202 44.2008 36.8264L56.2296 56.2351C57.088 57.6447 57.2082 59.3837 56.5511 60.8993L47.1876 81.5806C46.1021 84.0935 47.2174 87.0143 49.7005 88.1626C50.7274 88.6031 51.8627 88.7058 52.9488 88.4637L75.0255 83.1448C75.4463 83.0352 75.8846 83.0049 76.314 83.0472L77.5074 83.3472C78.2725 83.5627 78.9769 83.9458 79.5643 84.4773L96.5121 99.5507C97.9334 100.844 99.9702 101.216 101.753 100.493Z" fill="url(#paint_linear_1_110_0)" fill-opacity="1.000000" fill-rule="evenodd"/>
</svg>
