<svg width="110.410278" height="102.417480" viewBox="0 0 110.41 102.417" fill="none" xmlns="http://www.w3.org/2000/svg" xmlns:xlink="http://www.w3.org/1999/xlink">
	<desc>
			Created with Pixso.
	</desc>
	<defs>
		<filter id="filter_1_56_dd" x="31.668030" y="23.675171" width="78.742249" height="78.742310" filterUnits="userSpaceOnUse" color-interpolation-filters="sRGB">
			<feFlood flood-opacity="0" result="BackgroundImageFix"/>
			<feBlend mode="normal" in="SourceGraphic" in2="BackgroundImageFix" result="shape"/>
			<feGaussianBlur stdDeviation="5.66667" result="effect_layerBlur_1"/>
		</filter>
		<filter id="filter_1_58_dd" x="0.000000" y="0.000000" width="90.402008" height="90.269409" filterUnits="userSpaceOnUse" color-interpolation-filters="sRGB">
			<feFlood flood-opacity="0" result="BackgroundImageFix"/>
			<feGaussianBlur in="BackgroundImage" stdDeviation="8"/>
			<feComposite in2="SourceAlpha" operator="in" result="effect_backgroundBlur_1"/>
			<feBlend mode="normal" in="SourceGraphic" in2="effect_backgroundBlur_1" result="shape"/>
		</filter>
		<filter id="filter_1_59_dd" x="14.078583" y="34.586304" width="72.069702" height="31.316162" filterUnits="userSpaceOnUse" color-interpolation-filters="sRGB">
			<feFlood flood-opacity="0" result="BackgroundImageFix"/>
			<feGaussianBlur in="BackgroundImage" stdDeviation="5"/>
			<feComposite in2="SourceAlpha" operator="in" result="effect_backgroundBlur_1"/>
			<feColorMatrix in="SourceAlpha" type="matrix" values="0 0 0 0 0 0 0 0 0 0 0 0 0 0 0 0 0 0 127 0" result="hardAlpha"/>
			<feOffset dx="5" dy="5"/>
			<feGaussianBlur stdDeviation="3.33333"/>
			<feComposite in2="hardAlpha" operator="out" k2="-1" k3="1"/>
			<feColorMatrix type="matrix" values="0 0 0 0 0.17255 0 0 0 0 0.50196 0 0 0 0 1 0 0 0 1 0"/>
			<feBlend mode="normal" in2="effect_backgroundBlur_1" result="effect_dropShadow_2"/>
			<feBlend mode="normal" in="SourceGraphic" in2="effect_dropShadow_2" result="shape"/>
		</filter>
		<linearGradient id="paint_linear_1_55_0" x1="71.360809" y1="28.061768" x2="71.360809" y2="97.236221" gradientUnits="userSpaceOnUse">
			<stop stop-color="#A4C8FF"/>
			<stop offset="1.000000" stop-color="#3685FB"/>
		</linearGradient>
		<linearGradient id="paint_linear_1_58_0" x1="15.072163" y1="11.283497" x2="71.360779" y2="81.103058" gradientUnits="userSpaceOnUse">
			<stop stop-color="#FFFFFF" stop-opacity="0.250980"/>
			<stop offset="1.000000" stop-color="#FFFFFF" stop-opacity="0.000000"/>
		</linearGradient>
		<linearGradient id="paint_linear_1_59_0" x1="67.456589" y1="41.629768" x2="11.366151" y2="54.773766" gradientUnits="userSpaceOnUse">
			<stop stop-color="#FFFFFF"/>
			<stop offset="1.000000" stop-color="#FFFFFF" stop-opacity="0.200000"/>
		</linearGradient>
		<linearGradient id="paint_linear_1_59_1" x1="27.367233" y1="40.904648" x2="60.521824" y2="49.855484" gradientUnits="userSpaceOnUse">
			<stop stop-color="#FFFFFF" stop-opacity="0.250980"/>
			<stop offset="1.000000" stop-color="#FFFFFF" stop-opacity="0.000000"/>
		</linearGradient>
	</defs>
	<path id="Fill 1" d="M71.2915 28.0618C91.4169 28.0618 106 44.4807 106 62.7009C106 68.5204 104.303 74.5129 101.324 79.986C100.769 80.8865 100.7 82.0297 101.081 83.1034L103.402 90.8625C103.922 92.7332 102.328 94.1187 100.562 93.5645L93.5645 91.4861C91.6594 90.8625 90.1699 91.6593 88.3998 92.7332C83.3425 95.7122 77.0416 97.2362 71.3608 97.2362C54.1798 97.2362 36.7216 83.9694 36.7216 62.597C36.7216 44.1689 51.6165 28.0618 71.2915 28.0618Z" fill="url(#paint_linear_1_55_0)" fill-opacity="1.000000" fill-rule="nonzero"/>
	<g opacity="0.500000" filter="url(#filter_1_56_dd)">
		<path id="Fill 1" d="M93.4103 63.0463C93.4103 75.4041 83.3947 85.4175 71.0392 85.4175C58.6836 85.4175 48.668 75.4041 48.668 63.0463C48.668 50.693 58.6836 40.6752 71.0392 40.6752C83.3947 40.6752 93.4103 50.693 93.4103 63.0463Z" fill="#3685FB" fill-opacity="1.000000" fill-rule="nonzero"/>
	</g>
	<g filter="url(#filter_1_58_dd)">
		<path id="Fill 1" d="M45.2894 1C19.6086 1 1 21.9512 1 45.201C1 52.6267 3.16586 60.2736 6.96713 67.2573C7.67435 68.4065 7.76276 69.8651 7.27655 71.2354L4.31506 81.1364C3.65207 83.5233 5.6853 85.2913 7.93954 84.5841L16.8682 81.932C19.2992 81.1364 21.1999 82.1531 23.4585 83.5233C29.9119 87.3246 37.952 89.2694 45.201 89.2694C67.1247 89.2694 89.402 72.3405 89.402 45.0684C89.402 21.5535 70.3956 1 45.2894 1Z" fill="#3685FB" fill-opacity="0.350000" fill-rule="nonzero"/>
	</g>
	<path id="Fill 1" d="M3.00089 28.6888Q0 36.3578 0 45.201Q0 45.7617 0.0148621 46.3219Q0.300842 57.1017 6.08881 67.7354Q6.09525 67.7472 6.10199 67.7588Q6.10858 67.7703 6.11548 67.7814Q6.37292 68.1997 6.49323 68.6544Q6.76575 69.6846 6.33411 70.901Q6.33032 70.9117 6.32675 70.9225Q6.32242 70.9357 6.31848 70.9489L3.35703 80.8499Q2.97302 82.2318 3.37323 83.3273Q3.66129 84.1157 4.35553 84.7557Q5.04529 85.3916 5.85205 85.6278Q6.93924 85.9459 8.23889 85.5382L17.1529 82.8906Q17.1597 82.8887 17.1664 82.8865Q17.1729 82.8845 17.1792 82.8824Q19.3195 82.182 22.9398 84.3782Q25.9828 86.1707 29.2348 87.4177Q36.6712 90.2694 45.201 90.2694Q53.8518 90.2693 61.416 87.4023Q69.4155 84.3704 76.1998 78.132Q82.5081 72.3312 86.0144 65.1604Q90.402 56.1871 90.402 45.0684Q90.402 36.228 87.3911 28.5718Q84.1635 20.3643 77.4759 13.5173Q70.9764 6.86304 63.076 3.48462Q54.9278 0 45.2894 0Q35.2274 0 26.8178 3.72778Q19.1129 7.14307 12.795 13.6873Q6.19647 20.5222 3.00089 28.6888ZM45.2894 1C19.6086 1 1 21.9512 1 45.201C1 52.6267 3.16586 60.2736 6.96713 67.2573C7.67435 68.4065 7.76276 69.8651 7.27655 71.2354L4.31506 81.1364C3.65207 83.5233 5.6853 85.2913 7.93954 84.5841L16.8682 81.932C19.2992 81.1364 21.1999 82.1531 23.4585 83.5233C29.9119 87.3246 37.952 89.2694 45.201 89.2694C67.1247 89.2694 89.402 72.3405 89.402 45.0684C89.402 21.5535 70.3956 1 45.2894 1Z" fill="url(#paint_linear_1_58_0)" fill-opacity="1.000000" fill-rule="evenodd"/>
	<g filter="url(#filter_1_59_dd)">
		<mask id="mask_1_59" fill="white">
			<path id="Combined Shape" d="M45.1146 50.9023C41.9763 50.8582 39.4568 48.3386 39.4568 45.2004C39.4568 42.1063 42.0205 39.5427 45.1146 39.5869C48.2528 39.5869 50.7723 42.1063 50.7723 45.2446C50.7723 48.3386 48.2528 50.9023 45.1146 50.9023ZM59.8328 45.2445C59.8328 48.3386 62.3523 50.9023 65.4906 50.9023C68.6288 50.9023 71.1483 48.3386 71.1483 45.2445C71.1483 42.1063 68.6288 39.5868 65.4906 39.5868C62.3523 39.5868 59.8328 42.1063 59.8328 45.2445ZM24.7363 50.9025C21.6422 50.9025 19.0786 48.3387 19.0786 45.2446C19.0786 42.1064 21.5981 39.5869 24.7363 39.5869C27.8746 39.5869 30.394 42.1064 30.394 45.2446C30.394 48.3387 27.8746 50.8582 24.7363 50.9025Z" clip-rule="evenodd" fill="" fill-opacity="1.000000" fill-rule="evenodd"/>
		</mask>
		<path id="Combined Shape" d="M45.1146 50.9023C41.9763 50.8582 39.4568 48.3386 39.4568 45.2004C39.4568 42.1063 42.0205 39.5427 45.1146 39.5869C48.2528 39.5869 50.7723 42.1063 50.7723 45.2446C50.7723 48.3386 48.2528 50.9023 45.1146 50.9023ZM59.8328 45.2445C59.8328 48.3386 62.3523 50.9023 65.4906 50.9023C68.6288 50.9023 71.1483 48.3386 71.1483 45.2445C71.1483 42.1063 68.6288 39.5868 65.4906 39.5868C62.3523 39.5868 59.8328 42.1063 59.8328 45.2445ZM24.7363 50.9025C21.6422 50.9025 19.0786 48.3387 19.0786 45.2446C19.0786 42.1064 21.5981 39.5869 24.7363 39.5869C27.8746 39.5869 30.394 42.1064 30.394 45.2446C30.394 48.3387 27.8746 50.8582 24.7363 50.9025Z" clip-rule="evenodd" fill="url(#paint_linear_1_59_0)" fill-opacity="1.000000" fill-rule="evenodd" mask="url(#mask_1_59)"/>
	</g>
	<path id="Combined Shape" d="M39.4568 45.2004C39.4568 48.3386 41.9763 50.8582 45.1146 50.9023C48.2528 50.9023 50.7723 48.3386 50.7723 45.2446C50.7723 42.1063 48.2528 39.5869 45.1146 39.5869C42.0205 39.5427 39.4568 42.1063 39.4568 45.2004ZM65.4906 50.9023C62.3523 50.9023 59.8328 48.3386 59.8328 45.2445C59.8328 42.1063 62.3523 39.5868 65.4906 39.5868C68.6288 39.5868 71.1483 42.1063 71.1483 45.2445C71.1483 48.3386 68.6288 50.9023 65.4906 50.9023ZM19.0786 45.2446C19.0786 48.3387 21.6422 50.9025 24.7363 50.9025C27.8746 50.8582 30.394 48.3387 30.394 45.2446C30.394 42.1064 27.8746 39.5869 24.7363 39.5869C21.5981 39.5869 19.0786 42.1064 19.0786 45.2446ZM45.1202 50.5023L45.12 50.5023Q44.49 50.4934 43.8942 50.3461Q43.4708 50.2413 43.0647 50.0667Q42.5911 49.8629 42.1727 49.5783Q41.7552 49.2942 41.3925 48.9296Q41.0007 48.5356 40.7046 48.0795Q40.4514 47.6895 40.2682 47.254Q40.0971 46.8471 39.9972 46.4234Q39.8568 45.8285 39.8568 45.2004Q39.8568 44.6827 39.9567 44.1851Q40.0608 43.6662 40.2735 43.1691Q40.4551 42.7447 40.7033 42.3639Q41.0059 41.8998 41.4075 41.5004Q41.8369 41.0733 42.3379 40.7615Q42.6909 40.5418 43.0796 40.3793Q43.5735 40.1727 44.0882 40.0747Q44.5887 39.9794 45.1089 39.9868Q45.7861 39.9868 46.4224 40.1482Q46.8022 40.2444 47.1673 40.3982Q47.6239 40.5904 48.0295 40.8595Q48.4625 41.1468 48.8374 41.5217Q49.2128 41.8971 49.5003 42.3306Q49.7689 42.7358 49.9609 43.1918Q50.1286 43.5902 50.228 44.005Q50.3723 44.6075 50.3723 45.2446Q50.3723 45.7932 50.2622 46.3186Q50.1595 46.8085 49.9611 47.2783Q49.7767 47.715 49.5221 48.1059Q49.2267 48.5596 48.8367 48.9517Q48.4359 49.3547 47.97 49.6576Q47.5895 49.9049 47.1657 50.0854Q46.7293 50.2714 46.2741 50.3744Q45.7115 50.5017 45.1202 50.5023ZM60.3433 46.3201Q60.2328 45.7939 60.2328 45.2445Q60.2328 44.6082 60.3768 44.0064Q60.4762 43.5909 60.6442 43.1918Q60.8366 42.7347 61.1061 42.3287Q61.3932 41.8962 61.7677 41.5217Q62.1426 41.1468 62.5757 40.8595Q62.9812 40.5904 63.4378 40.3982Q63.8361 40.2305 64.2508 40.1312Q64.8534 39.9868 65.4906 39.9868Q66.1277 39.9868 66.7303 40.1312Q67.145 40.2305 67.5433 40.3982Q67.9999 40.5904 68.4055 40.8595Q68.8385 41.1468 69.2134 41.5217Q69.588 41.8962 69.8751 42.3287Q70.1445 42.7347 70.3369 43.1918Q70.505 43.5909 70.6043 44.0064Q70.7483 44.6082 70.7483 45.2445Q70.7483 45.7939 70.6378 46.3201Q70.5352 46.8092 70.3371 47.2783Q70.1527 47.7149 69.8982 48.1058Q69.6027 48.5595 69.2127 48.9517Q68.8123 49.3542 68.3469 49.6569Q67.9661 49.9045 67.5417 50.0853Q67.1047 50.2716 66.6488 50.3747Q66.0841 50.5023 65.4906 50.5023Q64.8967 50.5023 64.3317 50.3745Q63.8761 50.2715 63.4394 50.0853Q63.0147 49.9044 62.6337 49.6565Q62.1686 49.3539 61.7685 48.9517Q61.3783 48.5593 61.0827 48.1054Q60.8283 47.7147 60.644 47.2783Q60.446 46.8092 60.3433 46.3201ZM25.9377 50.351Q25.3506 50.4937 24.7309 50.5024L24.7307 50.5024Q24.2251 50.5019 23.7384 50.406Q23.2102 50.302 22.7042 50.0857Q22.3007 49.9132 21.9358 49.6804Q21.4485 49.3695 21.03 48.9509Q20.6116 48.5326 20.3009 48.0457Q20.0679 47.6805 19.8953 47.2769Q19.6789 46.7705 19.5749 46.2419Q19.4786 45.7528 19.4786 45.2446Q19.4786 44.6085 19.6225 44.0067Q19.7219 43.5911 19.89 43.1919Q20.0819 42.736 20.3505 42.3309Q20.638 41.8972 21.0134 41.5219Q21.3883 41.1469 21.8214 40.8596Q22.227 40.5905 22.6835 40.3983Q23.0819 40.2306 23.4965 40.1313Q24.0991 39.9869 24.7363 39.9869Q25.3737 39.9869 25.9764 40.1314Q26.391 40.2307 26.7891 40.3983Q27.2455 40.5905 27.6509 40.8594Q28.0841 41.1468 28.4592 41.5219Q28.8347 41.8974 29.1223 42.3311Q29.3908 42.7361 29.5827 43.1919Q29.7507 43.5911 29.8501 44.0067Q29.994 44.6085 29.994 45.2446Q29.994 45.8196 29.8729 46.3677Q29.7709 46.8291 29.5831 47.2715Q29.4116 47.6755 29.1789 48.0405Q28.8722 48.5214 28.4592 48.9344Q28.0994 49.2942 27.6862 49.5753Q27.2642 49.8623 26.7865 50.0673Q26.371 50.2456 25.9377 50.351Z" clip-rule="evenodd" fill="url(#paint_linear_1_59_1)" fill-opacity="1.000000" fill-rule="evenodd"/>
</svg>
