<svg width="41.000061" height="41.000000" viewBox="0 0 41.0001 41" fill="none" xmlns="http://www.w3.org/2000/svg" xmlns:xlink="http://www.w3.org/1999/xlink">
	<desc>
			Created with Pixso.
	</desc>
	<defs/>
	<path id="Vector" d="M2.28394 41L1.20117 41C0.537781 41 0 40.4622 0 39.7988L0 38.7161C0 35.8181 0.739868 32.9448 2.13947 30.4062C3.53406 27.8772 5.56061 25.7212 8.00006 24.1714C8.47491 23.8699 9.0957 23.938 9.49341 24.3359L16.6638 31.5066C17.0616 31.9043 17.13 32.5249 16.8284 32.9998C15.2787 35.4392 13.1226 37.4658 10.5934 38.8604C8.05499 40.2603 5.18164 41 2.28394 41Z" fill="#FF9737" fill-opacity="1.000000" fill-rule="nonzero"/>
	<path id="Vector" d="M1.20117 41L2.28394 41C5.18164 41 8.05499 40.2603 10.5935 38.8606C13.1227 37.4658 15.2787 35.4395 16.8284 33C17.1302 32.5249 17.0618 31.9043 16.6639 31.5066L13.0787 27.9214L0.351807 40.6482C0.569214 40.8655 0.869507 41 1.20117 41Z" fill="#FF6108" fill-opacity="1.000000" fill-rule="nonzero"/>
	<path id="Vector" d="M25.8195 39.0315C25.7556 39.0315 25.6912 39.0264 25.6271 39.0161C25.2459 38.9543 24.9178 38.7129 24.7451 38.3674L21.2141 31.3057C20.9537 30.7849 21.1042 30.1526 21.571 29.8049L32.0073 22.0342C32.3582 21.7729 32.8232 21.7231 33.2216 21.9041C33.6198 22.085 33.8882 22.468 33.9222 22.9043C34.3139 27.9285 32.4956 32.8528 28.9337 36.4148L26.6688 38.6797C26.4417 38.9067 26.1354 39.0315 25.8195 39.0315Z" fill="#0167FF" fill-opacity="1.000000" fill-rule="nonzero"/>
	<path id="Vector" d="M10.2311 19.9131C10.0496 19.9131 9.86609 19.8718 9.69452 19.7861L2.63263 16.2551C2.28723 16.0825 2.04596 15.7544 1.98413 15.373C1.9223 14.9919 2.04742 14.6045 2.3205 14.3313L4.58551 12.0664C8.14734 8.50439 13.0721 6.68677 18.096 7.07788C18.5321 7.11206 18.9153 7.38037 19.0963 7.77856C19.2773 8.177 19.2274 8.64209 18.9661 8.99292L11.1952 19.4292C10.9621 19.7422 10.6009 19.9131 10.2311 19.9131Z" fill="#3685FB" fill-opacity="1.000000" fill-rule="nonzero"/>
	<path id="Vector" d="M39.5321 13.1714C36.467 13.0044 33.5906 11.7244 31.4331 9.56689C29.2757 7.40942 27.9956 4.5332 27.8287 1.46777L27.8069 1.06787C23.8386 2.25659 20.1636 4.41528 17.149 7.42993L17.0896 7.4895C12.4276 12.1514 8.88989 17.6453 6.57489 23.8186C6.40955 24.2598 6.51715 24.7568 6.85022 25.0898L15.91 34.1497C16.1393 34.3789 16.4465 34.5015 16.7596 34.5015C16.9011 34.5015 17.0438 34.4763 17.1811 34.425C23.3544 32.1101 28.8483 28.5723 33.5103 23.9104L33.5701 23.8506C36.5845 20.8362 38.7429 17.1611 39.9318 13.1931L39.5321 13.1714Z" fill="#E6F3FF" fill-opacity="1.000000" fill-rule="nonzero"/>
	<path id="Vector" d="M15.9103 34.1497C16.1396 34.3789 16.4468 34.5015 16.7599 34.5015C16.9014 34.5015 17.0441 34.4763 17.1814 34.425C23.3547 32.1101 28.8486 28.5725 33.5107 23.9104L33.5705 23.8506C36.5849 20.8362 38.7433 17.1614 39.9321 13.1931L39.5322 13.1714C36.4671 13.0044 33.5908 11.7244 31.4332 9.56689L11.3804 29.6196L15.9103 34.1497Z" fill="#D2DCF0" fill-opacity="1.000000" fill-rule="nonzero"/>
	<path id="Vector" d="M40.5909 1.37598C40.5015 0.884033 40.1162 0.498779 39.6241 0.40918C35.3362 -0.370605 30.99 -0.0214844 26.9771 1.33252L27.0281 2.26855C27.1949 5.33374 28.475 8.21021 30.6324 10.3677C32.7899 12.5251 35.6663 13.8052 38.7315 13.9719L39.6677 14.0229C41.0215 10.0103 41.3705 5.66382 40.5909 1.37598Z" fill="#3685FB" fill-opacity="1.000000" fill-rule="nonzero"/>
	<path id="Vector" d="M30.6323 10.3674C32.7898 12.5249 35.6661 13.8049 38.7314 13.9719L39.6675 14.0229C41.0214 10.01 41.3704 5.66382 40.5909 1.37598C40.5461 1.12988 40.4274 0.9104 40.2584 0.741455L30.6323 10.3674Z" fill="#0167FF" fill-opacity="1.000000" fill-rule="nonzero"/>
	<path id="Vector" d="M25.2531 20.9519C23.8628 20.9519 22.5556 20.4104 21.5726 19.4275C20.5895 18.4443 20.048 17.1372 20.048 15.7468C20.048 14.3564 20.5894 13.0493 21.5726 12.0662C22.5556 11.0833 23.8628 10.5417 25.2531 10.5417C26.6434 10.5417 27.9507 11.0833 28.9337 12.0662C29.9168 13.0493 30.4583 14.3564 30.4583 15.7468C30.4583 17.1372 29.9168 18.4443 28.9337 19.4275C27.9506 20.4104 26.6434 20.9519 25.2531 20.9519Z" fill="#3685FB" fill-opacity="1.000000" fill-rule="nonzero"/>
	<path id="Vector" d="M8.83234 33.3689C8.52496 33.3689 8.21753 33.2517 7.98303 33.0171C7.51398 32.5481 7.51398 31.7876 7.98303 31.3184L18.1752 21.1262C18.6442 20.6572 19.4048 20.6572 19.8739 21.1262C20.343 21.5952 20.343 22.3557 19.8739 22.825L9.68164 33.0171C9.44714 33.2517 9.13971 33.3689 8.83234 33.3689Z" fill="#3685FB" fill-opacity="1.000000" fill-rule="nonzero"/>
	<path id="Vector" d="M21.5726 19.4275C22.5557 20.4106 23.8629 20.9521 25.2532 20.9521C26.6435 20.9521 27.9507 20.4106 28.9337 19.4275C29.9169 18.4446 30.4583 17.1372 30.4583 15.7471C30.4583 14.3567 29.9169 13.0496 28.9337 12.0664L21.5726 19.4275Z" fill="#0167FF" fill-opacity="1.000000" fill-rule="nonzero"/>
	<path id="Vector" d="M7.98291 33.0171C8.21747 33.2517 8.5249 33.3691 8.83221 33.3691C9.13959 33.3691 9.44708 33.2517 9.68152 33.0171L19.8738 22.825C20.3429 22.356 20.3429 21.5952 19.8738 21.1262C19.8738 21.1262 19.8738 21.1262 19.8737 21.1262L7.98291 33.0171Z" fill="#0167FF" fill-opacity="1.000000" fill-rule="nonzero"/>
	<path id="Vector" d="M23.2532 20.5496C22.5046 20.5496 21.8008 20.2581 21.2714 19.7288C20.742 19.1995 20.4504 18.4954 20.4504 17.7468C20.4504 16.9983 20.742 16.2944 21.2714 15.7649C21.8007 15.2356 22.5046 14.9441 23.2532 14.9441C24.0019 14.9441 24.7057 15.2356 25.2351 15.7649C25.7645 16.2942 26.056 16.9983 26.056 17.7468C26.056 18.4954 25.7645 19.1992 25.2351 19.7288C24.7057 20.2581 24.0018 20.5496 23.2532 20.5496Z" fill="#00F2D9" fill-opacity="1.000000" fill-rule="nonzero"/>
	<path id="Vector" d="M21.2712 19.7288C21.8005 20.2583 22.5045 20.5498 23.2531 20.5498C24.0018 20.5498 24.7056 20.2583 25.2349 19.7288C25.7643 19.1995 26.0558 18.4956 26.0558 17.7471C26.0558 16.9983 25.7643 16.2944 25.2349 15.7651L21.2712 19.7288Z" fill="#00B3A0" fill-opacity="1.000000" fill-rule="nonzero"/>
</svg>
