<svg width="106.000000" height="45.000000" viewBox="0 0 106 45" fill="none" xmlns="http://www.w3.org/2000/svg" xmlns:xlink="http://www.w3.org/1999/xlink">
	<desc>
			Created with Pixso.
	</desc>
	<defs>
		<clipPath id="clip1_325">
			<rect id="Logo" width="106.000000" height="45.000000" fill="white" fill-opacity="0"/>
		</clipPath>
	</defs>
	<rect id="Logo" width="106.000000" height="45.000000" fill="#FFFFFF" fill-opacity="0"/>
	<g clip-path="url(#clip1_325)">
		<path id="TripGoal" d="M26.7359 12.8625Q26.7359 13.2771 26.5808 13.6218Q26.5356 13.7224 26.4772 13.8169Q26.4163 13.9255 26.3411 14.0232Q26.1262 14.3022 25.7951 14.4919Q25.6986 14.5452 25.5973 14.5859Q25.2538 14.7249 24.8542 14.7249C24.5093 14.7249 24.1878 14.6472 23.8899 14.4919Q23.6692 14.3586 23.4932 14.1807Q23.3316 14.0176 23.2078 13.8169Q23.1854 13.7771 23.1652 13.7363Q22.9725 13.3469 22.9725 12.8625Q22.9725 12.3779 23.1652 11.9885Q23.1854 11.9478 23.2078 11.908Q23.3561 11.6675 23.5587 11.4885L23.5588 11.4885Q23.7094 11.3555 23.8899 11.2561C24.1878 11.0854 24.5093 11 24.8542 11Q25.1927 11 25.4909 11.1096L25.4909 11.1096L25.491 11.1096Q25.6486 11.1675 25.7951 11.2561Q26.0832 11.4062 26.2833 11.6335L26.2833 11.6335Q26.3936 11.759 26.4772 11.908Q26.5356 12.0024 26.5808 12.103Q26.7359 12.4478 26.7359 12.8625ZM4.70422 15.0276L4.70422 28.4836L8.20886 28.4836L8.20886 15.0276L12.9131 15.0276L12.9131 11.9546L0 11.9546L0 15.0276L4.70422 15.0276ZM29.134 16.1917L29.134 33L32.4269 33L32.4269 27.1101C32.8503 27.6533 33.3756 28.0801 34.0028 28.3904C34.6301 28.6853 35.3279 28.8328 36.0962 28.8328C36.9273 28.8328 37.7035 28.6699 38.4248 28.344C39.1461 28.0024 39.7733 27.5369 40.3065 26.947C40.8396 26.3418 41.2552 25.6433 41.5531 24.8518C41.851 24.0603 42 23.199 42 22.2678C42 21.3521 41.851 20.5061 41.5531 19.7302C41.2709 18.9541 40.871 18.2791 40.3535 17.7048C39.8361 17.115 39.2324 16.6572 38.5424 16.3313C37.8525 16.0054 37.0998 15.8423 36.2844 15.8423Q35.394 15.8423 34.6077 16.1284Q34.2723 16.2502 33.9558 16.4243C33.2502 16.7969 32.6857 17.3167 32.2623 17.9841L32.1682 16.1917L29.134 16.1917ZM13.8591 16.1917L13.8591 28.4836L17.152 28.4836L17.152 22.4539C17.152 21.4451 17.3951 20.6692 17.8812 20.126C18.3672 19.5671 19.0651 19.2878 19.9745 19.2878Q20.2568 19.2878 20.5155 19.3345C20.7037 19.3499 20.884 19.3887 21.0565 19.4507L21.4093 16.238C21.2368 16.176 21.0408 16.1294 20.8213 16.0984C20.6017 16.0518 20.3823 16.0286 20.1627 16.0286C19.4414 16.0286 18.8141 16.207 18.281 16.564C17.7479 16.9055 17.3245 17.4021 17.0109 18.054L16.8932 16.1917L13.8591 16.1917ZM23.2078 28.4836L23.2078 16.1917L26.5007 16.1917L26.5007 28.4836L23.2078 28.4836ZM37.1076 25.4338C36.6372 25.7444 36.1041 25.8994 35.5082 25.8994C34.9123 25.8994 34.3792 25.7444 33.9088 25.4338C33.4384 25.1235 33.062 24.7043 32.7797 24.1768C32.5132 23.6335 32.3799 23.0205 32.3799 22.3376C32.3799 21.6548 32.5132 21.0493 32.7797 20.5217C33.062 19.9785 33.4384 19.5518 33.9088 19.2412C34.3792 18.9309 34.9123 18.7756 35.5082 18.7756C36.1041 18.7756 36.6372 18.9309 37.1076 19.2412C37.5781 19.5518 37.9465 19.9785 38.2131 20.5217C38.4954 21.0493 38.6365 21.6548 38.6365 22.3376C38.6365 23.0205 38.4954 23.6335 38.2131 24.1768C37.9465 24.7043 37.5781 25.1235 37.1076 25.4338Z" fill="#3685FB" fill-opacity="1.000000" fill-rule="evenodd"/>
		<path id="TripGoal" d="M89.725 11L89.725 28.53L93 28.53L93 11L89.725 11ZM48.7781 28.5769C49.6514 28.8589 50.5793 29 51.5618 29C52.7471 29 53.8387 28.812 54.8368 28.436C55.8349 28.0444 56.6926 27.4961 57.41 26.791Q57.6951 26.511 57.9457 26.2029L57.9458 26.2026Q58.6411 25.3477 59.0709 24.2769C59.4764 23.3054 59.6791 22.2402 59.6791 21.0811L59.6791 19.3186L51.9595 19.3186L51.9595 22.209L56.1 22.209C56.0065 22.9294 55.7647 23.5562 55.3749 24.0889C54.985 24.6213 54.4781 25.0366 53.8543 25.3342C53.2305 25.6318 52.5209 25.7808 51.7256 25.7808C50.977 25.7808 50.2908 25.6475 49.667 25.3811C49.0432 25.0991 48.4973 24.7075 48.0295 24.2063C47.5772 23.7051 47.2263 23.1096 46.9768 22.4204Q46.6025 21.3865 46.6025 20.1646Q46.6025 18.9661 46.9768 17.9556C47.2263 17.282 47.5772 16.6946 48.0295 16.1931C48.4818 15.6763 49.012 15.2847 49.6202 15.0183Q49.751 14.9575 49.8853 14.9058L49.8853 14.9055Q50.6869 14.5952 51.6086 14.5952Q52.7781 14.5952 53.6867 15.0823L53.6867 15.0823L53.6869 15.0825L53.6874 15.0828Q53.7961 15.1409 53.9011 15.2063Q54.0507 15.2971 54.1921 15.3994L54.1923 15.3997L54.1923 15.3997Q55.001 15.9851 55.5386 16.9451L58.9072 15.9111Q58.4621 14.8623 57.754 14.0398L57.754 14.0398Q57.4944 13.7383 57.1995 13.4673Q56.8951 13.1816 56.5627 12.9333L56.5627 12.9333Q55.7198 12.304 54.6965 11.9165C53.7452 11.5562 52.7159 11.376 51.6086 11.376C50.6261 11.376 49.6982 11.5249 48.8248 11.8225Q48.0499 12.0771 47.3513 12.4685L47.3512 12.4685Q46.89 12.7268 46.4622 13.0444C45.7448 13.5613 45.1288 14.188 44.6141 14.9243Q44.565 14.9946 44.5173 15.0659L44.5173 15.0659Q43.8154 16.114 43.4211 17.3682Q43 18.7075 43 20.2351Q43 21.7625 43.4211 23.1018C43.7018 23.979 44.0917 24.7781 44.5907 25.4988Q45.0203 26.1003 45.5369 26.6145L45.5369 26.6145Q45.9485 27.0242 46.4153 27.3787C47.1328 27.8955 47.9203 28.2949 48.7781 28.5769ZM65.4293 28.3889Q66.5989 28.8826 67.9791 28.8826Q69.3826 28.8826 70.5523 28.3889C71.3477 28.0601 72.0338 27.5979 72.6108 27.0027C73.2035 26.4072 73.6635 25.7102 73.9911 24.9111C74.3185 24.1123 74.4823 23.2429 74.4823 22.303C74.4823 21.363 74.3185 20.5012 73.9911 19.718C73.6791 18.9189 73.2347 18.2297 72.6577 17.6501C72.0806 17.0549 71.4022 16.5928 70.6225 16.2637Q69.4528 15.7703 68.0726 15.7703C67.1369 15.7703 66.2714 15.9348 65.476 16.2637Q64.8323 16.5354 64.2735 16.928L64.2733 16.9282Q63.817 17.2488 63.4174 17.6501C62.8404 18.2454 62.3882 18.9426 62.0607 19.7415C61.7332 20.5249 61.5694 21.3865 61.5694 22.3264C61.5694 23.2664 61.7253 24.1357 62.0373 24.9348C62.3647 25.7336 62.817 26.4309 63.394 27.0261C63.9711 27.6057 64.6495 28.0601 65.4293 28.3889ZM80.4481 28.8826Q79.4889 28.8826 78.6936 28.6006C78.1633 28.4126 77.6955 28.1462 77.29 27.8015C76.9001 27.4412 76.596 27.0261 76.3777 26.5562C76.1593 26.0862 76.0502 25.5691 76.0502 25.0051C76.0502 24.2219 76.2607 23.5327 76.6818 22.9373C77.1028 22.342 77.6955 21.8799 78.4597 21.551C79.2238 21.2063 80.1127 21.0339 81.1264 21.0339C81.6411 21.0339 82.1245 21.0811 82.5768 21.175C83.0446 21.269 83.4969 21.4021 83.9336 21.5745L83.9336 20.8459Q83.9336 20.0024 83.5465 19.4131Q83.4484 19.2637 83.3254 19.1306C82.9355 18.6919 82.3975 18.4727 81.7113 18.4727C81.1966 18.4727 80.7288 18.6057 80.3077 18.8721C79.8866 19.1228 79.5903 19.4829 79.4188 19.9531L76.4946 19.3655C76.6662 18.645 77.0015 18.0183 77.5005 17.4856C78.0152 16.9373 78.639 16.5144 79.372 16.2168C80.1049 15.9189 80.9003 15.7703 81.7581 15.7703C82.5534 15.7703 83.2786 15.8955 83.9336 16.1462C84.5886 16.397 85.15 16.7571 85.6179 17.2271C86.1013 17.697 86.4678 18.2532 86.7173 18.8955C86.9825 19.5222 87.115 20.2271 87.115 21.0105L87.115 28.53L84.1909 28.53L84.0974 27.073C83.7698 27.6057 83.2942 28.0444 82.6704 28.3889C82.0466 28.718 81.3058 28.8826 80.4481 28.8826ZM69.6166 25.4517C69.1487 25.7649 68.6185 25.9216 68.0259 25.9216C67.4332 25.9216 66.903 25.7649 66.4351 25.4517C65.9673 25.1384 65.593 24.7153 65.3123 24.1829C65.0472 23.6345 64.9146 23.0156 64.9146 22.3264C64.9146 21.637 65.0472 21.0261 65.3123 20.4934C65.593 19.9451 65.9673 19.5144 66.4351 19.2009C66.903 18.8877 67.4332 18.731 68.0259 18.731C68.6185 18.731 69.1487 18.8877 69.6166 19.2009Q69.7712 19.3047 69.911 19.4253L69.9111 19.4253Q70.406 19.8523 70.7161 20.4934C70.9968 21.0261 71.1371 21.637 71.1371 22.3264C71.1371 23.0156 70.9968 23.6345 70.7161 24.1829Q70.4349 24.7476 70.0017 25.1479Q69.8222 25.314 69.6166 25.4517ZM79.2784 24.8408C79.2784 25.2793 79.4578 25.6396 79.8164 25.9216C80.1751 26.2036 80.6508 26.3447 81.2434 26.3447C81.7581 26.3447 82.2181 26.2351 82.6236 26.0156C83.0291 25.7964 83.3488 25.4988 83.5827 25.1228C83.8166 24.731 83.9336 24.3003 83.9336 23.8303L83.9336 23.7129C83.5905 23.5718 83.224 23.4622 82.8341 23.3838C82.4442 23.2898 82.0544 23.2429 81.6645 23.2429C80.9315 23.2429 80.3467 23.3916 79.91 23.6892C79.4889 23.9712 79.2784 24.355 79.2784 24.8408Z" fill="#002248" fill-opacity="1.000000" fill-rule="evenodd"/>
		<circle id="Ellipse 3" cx="102.000000" cy="25.000000" r="4.000000" fill="#00B3A0" fill-opacity="1.000000"/>
	</g>
</svg>
