<svg width="9.330109" height="16.000000" viewBox="0 0 9.33011 16" fill="none" xmlns="http://www.w3.org/2000/svg" xmlns:xlink="http://www.w3.org/1999/xlink">
	<desc>
			Created with Pixso.
	</desc>
	<defs/>
	<path id="btn-left-icon" d="M8.89578 0.448975C9.17395 0.733398 9.33011 1.11804 9.33011 1.51904C9.33011 1.92004 9.17395 2.30469 8.89578 2.58911L3.60831 8.03796L8.89578 13.4109C9.17395 13.6953 9.33011 14.08 9.33011 14.481C9.33011 14.882 9.17395 15.2666 8.89578 15.551C8.75693 15.6934 8.59174 15.8063 8.4097 15.8833C8.22769 15.9603 8.03247 16 7.8353 16C7.63812 16 7.4429 15.9603 7.26086 15.8833C7.07886 15.8063 6.91367 15.6934 6.77481 15.551L0.441803 9.1156C0.301819 8.97449 0.190704 8.80664 0.114868 8.6217C0.039032 8.43665 0 8.23828 0 8.03796C0 7.83752 0.039032 7.63916 0.114868 7.45422C0.190704 7.26929 0.301819 7.10144 0.441803 6.96033L6.77481 0.448975C6.91367 0.306641 7.07886 0.193848 7.26086 0.116699C7.4429 0.0396729 7.63812 0 7.8353 0C8.03247 0 8.22769 0.0396729 8.4097 0.116699C8.59171 0.193848 8.75693 0.306641 8.89578 0.448975Z" fill="#697687" fill-opacity="1.000000" fill-rule="nonzero"/>
</svg>
