<svg width="9.330139" height="16.000000" viewBox="0 0 9.33014 16" fill="none" xmlns="http://www.w3.org/2000/svg" xmlns:xlink="http://www.w3.org/1999/xlink">
	<desc>
			Created with Pixso.
	</desc>
	<defs/>
	<path id="btn-icon" d="M0.434326 0.448975C0.156128 0.733398 0 1.11804 0 1.51904C0 1.92004 0.156128 2.30469 0.434326 2.58911L5.7218 8.03796L0.434326 13.4109C0.156128 13.6953 0 14.08 0 14.481C0 14.882 0.156128 15.2666 0.434326 15.551C0.573181 15.6934 0.738403 15.8063 0.92041 15.8833C1.10242 15.9603 1.29767 16 1.49481 16C1.69202 16 1.88721 15.9603 2.06921 15.8833C2.25122 15.8063 2.41644 15.6934 2.5553 15.551L8.88831 9.1156C9.02832 8.97449 9.1394 8.80664 9.21527 8.6217C9.29108 8.43665 9.33014 8.23828 9.33014 8.03796C9.33014 7.83752 9.29108 7.63916 9.21527 7.45422C9.1394 7.26929 9.02832 7.10144 8.88831 6.96033L2.5553 0.448975C2.41644 0.306641 2.25122 0.193848 2.06921 0.116699C1.88721 0.0396729 1.69202 0 1.49481 0C1.29767 0 1.10242 0.0396729 0.92041 0.116699C0.738403 0.193848 0.573181 0.306641 0.434326 0.448975Z" fill="#FCFCFC" fill-opacity="1.000000" fill-rule="nonzero"/>
</svg>
