<svg width="88.000000" height="15.000000" viewBox="0 0 88 15" fill="none" xmlns="http://www.w3.org/2000/svg" xmlns:xlink="http://www.w3.org/1999/xlink">
	<desc>
			Created with Pixso.
	</desc>
	<defs>
		<clipPath id="clip1_147">
			<rect id="item-icon" width="88.000000" height="15.000000" fill="white" fill-opacity="0"/>
		</clipPath>
	</defs>
	<rect id="item-icon" width="88.000000" height="15.000000" fill="#FFFFFF" fill-opacity="0"/>
	<g clip-path="url(#clip1_147)">
		<path id="Vector" d="M15.9105 5.73059C15.7625 5.27783 15.3694 4.94788 14.8961 4.87952L10.8999 4.30151L9.11258 0.697998C8.90097 0.271179 8.46411 0.000976562 7.98578 0.000976562C7.50754 0.000976562 7.07077 0.27124 6.8591 0.698059L5.07211 4.30151L1.07562 4.87952C0.602325 4.94788 0.209045 5.27783 0.0612488 5.73059C-0.0865173 6.18335 0.0368042 6.6803 0.379333 7.01251L3.27115 9.81738L2.58835 13.7784C2.50751 14.2476 2.70126 14.7217 3.0882 15.0015C3.3071 15.1597 3.56635 15.2403 3.82687 15.2403C4.02692 15.2403 4.22772 15.1929 4.4115 15.0966L7.98578 13.2264L11.5604 15.0966C11.9837 15.3179 12.4966 15.2812 12.8837 15.0013C13.2707 14.7217 13.4644 14.2475 13.3836 13.7783L12.7009 9.8172L15.5924 7.01239C15.9349 6.68018 16.0583 6.18323 15.9105 5.73059Z" fill="#FFD751" fill-opacity="1.000000" fill-rule="nonzero"/>
		<path id="Vector" d="M15.9106 5.72949C15.7628 5.27686 15.3697 4.9469 14.8964 4.87854L10.9001 4.30072L9.11298 0.697021C8.90131 0.270203 8.46445 0 7.98621 0L7.98621 13.2255L11.5608 15.0956C11.9841 15.3168 12.497 15.2802 12.8841 15.0003C13.2711 14.7206 13.4648 14.2465 13.384 13.7773L12.7014 9.81635L15.5929 7.01123C15.9353 6.6792 16.0585 6.18219 15.9106 5.72949Z" fill="#F4C82A" fill-opacity="1.000000" fill-rule="nonzero"/>
		<path id="Vector" d="M33.9107 5.73059C33.7628 5.27783 33.3697 4.94788 32.8964 4.87952L28.9001 4.30151L27.1128 0.697998C26.9012 0.271179 26.4644 0.000976562 25.986 0.000976562C25.5078 0.000976562 25.071 0.27124 24.8593 0.698059L23.0724 4.30151L19.0759 4.87952C18.6026 4.94788 18.2093 5.27783 18.0615 5.73059C17.9137 6.18335 18.037 6.6803 18.3796 7.01251L21.2714 9.81738L20.5886 13.7784C20.5078 14.2476 20.7015 14.7217 21.0884 15.0015C21.3073 15.1597 21.5666 15.2403 21.8271 15.2403C22.0272 15.2403 22.228 15.1929 22.4117 15.0966L25.986 13.2264L29.5606 15.0966C29.9839 15.3179 30.4969 15.2812 30.884 15.0013C31.2709 14.7217 31.4647 14.2475 31.3838 13.7783L30.7012 9.8172L33.5927 7.01239C33.9352 6.68018 34.0585 6.18323 33.9107 5.73059Z" fill="#FFD751" fill-opacity="1.000000" fill-rule="nonzero"/>
		<path id="Vector" d="M33.9109 5.72949C33.763 5.27686 33.3699 4.9469 32.8966 4.87854L28.9004 4.30072L27.1132 0.697021C26.9016 0.270203 26.4647 0 25.9865 0L25.9865 13.2255L29.5611 15.0956C29.9843 15.3168 30.4973 15.2802 30.8844 15.0003C31.2713 14.7206 31.4651 14.2465 31.3842 13.7773L30.7017 9.81635L33.5931 7.01123C33.9355 6.6792 34.0587 6.18219 33.9109 5.72949Z" fill="#F4C82A" fill-opacity="1.000000" fill-rule="nonzero"/>
		<path id="Vector" d="M51.911 5.73059C51.763 5.27783 51.3699 4.94788 50.8966 4.87952L46.9004 4.30151L45.1131 0.697998C44.9015 0.271179 44.4646 0.000976562 43.9863 0.000976562C43.508 0.000976562 43.0713 0.27124 42.8596 0.698059L41.0726 4.30151L37.0761 4.87952C36.6028 4.94788 36.2095 5.27783 36.0617 5.73059C35.914 6.18335 36.0373 6.6803 36.3798 7.01251L39.2716 9.81738L38.5888 13.7784C38.508 14.2476 38.7018 14.7217 39.0887 15.0015C39.3076 15.1597 39.5668 15.2403 39.8274 15.2403C40.0274 15.2403 40.2282 15.1929 40.412 15.0966L43.9863 13.2264L47.5609 15.0966C47.9842 15.3179 48.4971 15.2812 48.8842 15.0013C49.2711 14.7217 49.4649 14.2475 49.3841 13.7783L48.7014 9.8172L51.5929 7.01239C51.9354 6.68018 52.0587 6.18323 51.911 5.73059Z" fill="#FFD751" fill-opacity="1.000000" fill-rule="nonzero"/>
		<path id="Vector" d="M51.9111 5.72949C51.7633 5.27686 51.3701 4.9469 50.8969 4.87854L46.9006 4.30072L45.1135 0.697021C44.9018 0.270203 44.4649 0 43.9867 0L43.9867 13.2255L47.5613 15.0956C47.9846 15.3168 48.4975 15.2802 48.8846 15.0003C49.2715 14.7206 49.4653 14.2465 49.3845 13.7773L48.7019 9.81635L51.5934 7.01123C51.9358 6.6792 52.059 6.18219 51.9111 5.72949Z" fill="#F4C82A" fill-opacity="1.000000" fill-rule="nonzero"/>
		<path id="Vector" d="M69.9112 5.73059C69.7633 5.27783 69.3701 4.94788 68.8969 4.87952L64.9006 4.30151L63.1133 0.697998C62.9017 0.271179 62.4648 0.000976562 61.9865 0.000976562C61.5083 0.000976562 61.0715 0.27124 60.8598 0.698059L59.0728 4.30151L55.0764 4.87952C54.6031 4.94788 54.2098 5.27783 54.062 5.73059C53.9142 6.18335 54.0375 6.6803 54.3801 7.01251L57.2719 9.81738L56.5891 13.7784C56.5082 14.2476 56.702 14.7217 57.0889 15.0015C57.3078 15.1597 57.5671 15.2403 57.8276 15.2403C58.0276 15.2403 58.2285 15.1929 58.4122 15.0966L61.9865 13.2264L65.5611 15.0966C65.9844 15.3179 66.4973 15.2812 66.8845 15.0013C67.2714 14.7217 67.4651 14.2475 67.3843 13.7783L66.7017 9.8172L69.5931 7.01239C69.9357 6.68018 70.059 6.18323 69.9112 5.73059Z" fill="#FFD751" fill-opacity="1.000000" fill-rule="nonzero"/>
		<path id="Vector" d="M69.9114 5.72949C69.7635 5.27686 69.3704 4.9469 68.8971 4.87854L64.9008 4.30072L63.1137 0.697021C62.902 0.270203 62.4652 0 61.9869 0L61.9869 13.2255L65.5616 15.0956C65.9848 15.3168 66.4978 15.2802 66.8849 15.0003C67.2718 14.7206 67.4655 14.2465 67.3847 13.7773L66.7021 9.81635L69.5936 7.01123C69.936 6.6792 70.0592 6.18219 69.9114 5.72949Z" fill="#F4C82A" fill-opacity="1.000000" fill-rule="nonzero"/>
		<path id="Vector" d="M87.9115 5.73059C87.7635 5.27783 87.3704 4.94788 86.8971 4.87952L82.9008 4.30151L81.1136 0.697998C80.9019 0.271179 80.4651 0.000976562 79.9868 0.000976562C79.5085 0.000976562 79.0717 0.27124 78.8601 0.698059L77.0731 4.30151L73.0766 4.87952C72.6033 4.94788 72.21 5.27783 72.0622 5.73059C71.9145 6.18335 72.0378 6.6803 72.3803 7.01251L75.2721 9.81738L74.5893 13.7784C74.5085 14.2476 74.7022 14.7217 75.0892 15.0015C75.3081 15.1597 75.5673 15.2403 75.8279 15.2403C76.0279 15.2403 76.2287 15.1929 76.4125 15.0966L79.9868 13.2264L83.5614 15.0966C83.9847 15.3179 84.4976 15.2812 84.8847 15.0013C85.2716 14.7217 85.4654 14.2475 85.3846 13.7783L84.7019 9.8172L87.5934 7.01239C87.9359 6.68018 88.0592 6.18323 87.9115 5.73059Z" fill="#FFD751" fill-opacity="1.000000" fill-rule="nonzero"/>
		<path id="Vector" d="M87.9116 5.72949C87.7638 5.27686 87.3706 4.9469 86.8973 4.87854L82.9011 4.30072L81.114 0.697021C80.9023 0.270203 80.4654 0 79.9872 0L79.9872 13.2255L83.5618 15.0956C83.9851 15.3168 84.498 15.2802 84.8851 15.0003C85.272 14.7206 85.4658 14.2465 85.3849 13.7773L84.7024 9.81635L87.5939 7.01123C87.9362 6.6792 88.0595 6.18219 87.9116 5.72949Z" fill="#F4C82A" fill-opacity="1.000000" fill-rule="nonzero"/>
	</g>
</svg>
