<svg width="21.517242" height="24.000000" viewBox="0 0 21.5172 24" fill="none" xmlns="http://www.w3.org/2000/svg" xmlns:xlink="http://www.w3.org/1999/xlink">
	<desc>
			Created with Pixso.
	</desc>
	<defs/>
	<path id="book-now-icon" d="M16.4368 0.867432C16.4368 1.88892 17.2351 2.69873 18.1992 3.03662C20.2453 3.75391 21.2788 5.38403 21.4694 7.58765C21.5053 7.91138 21.2184 8.20044 20.8717 8.20044L0.645508 8.20044C0.310791 8.20044 0.0238953 7.92285 0.0477905 7.58765C0.238373 5.38403 1.27194 3.75391 3.31805 3.03662C4.28207 2.69873 5.08044 1.88892 5.08044 0.867432C5.08044 0.393311 5.48688 0 5.97699 0C6.4671 0 6.87354 0.393311 6.87354 0.867432C6.87354 1.82568 7.6503 2.60254 8.60849 2.60254L12.9087 2.60254C13.8669 2.60254 14.6437 1.82568 14.6437 0.867432C14.6437 0.393311 15.0501 0 15.5402 0C16.0303 0 16.4368 0.393311 16.4368 0.867432ZM1.1954 9.9353L20.3218 9.9353C20.9793 9.9353 21.5172 10.4558 21.5172 11.092L21.5172 18.2168C21.5172 21.6868 19.7242 24 15.5402 24L5.97702 24C1.79309 24 0 21.6868 0 18.2168L0 11.092C0 10.4558 0.537933 9.9353 1.1954 9.9353ZM15.612 15.707L15.7913 15.5681C16.0064 15.3484 16.1379 15.0476 16.1379 14.7468C16.1379 14.4463 16.0064 14.1455 15.7913 13.9258L15.612 13.7869C15.5402 13.7407 15.4685 13.7061 15.3968 13.6829C15.3251 13.6482 15.2533 13.625 15.1816 13.6135C14.9425 13.5671 14.7035 13.5903 14.4883 13.6829C14.3329 13.7407 14.2133 13.8215 14.0938 13.9258C13.8786 14.1455 13.7471 14.4463 13.7471 14.7468C13.7471 15.0476 13.8786 15.3484 14.0938 15.5681C14.3209 15.7764 14.6317 15.9036 14.9425 15.9036C15.0143 15.9036 15.0979 15.8921 15.1816 15.8804C15.2533 15.8689 15.3251 15.8457 15.3968 15.811C15.4685 15.7878 15.5402 15.7532 15.612 15.707ZM6.57471 15.9036C6.88553 15.9036 7.19632 15.7764 7.42346 15.5681C7.63861 15.3484 7.77011 15.0476 7.77011 14.7468C7.77011 14.4463 7.63861 14.1455 7.42346 13.9258C7.31586 13.8215 7.18436 13.7407 7.02896 13.6829C6.58667 13.4978 6.0607 13.6018 5.72598 13.9258C5.5108 14.1455 5.3793 14.4463 5.3793 14.7468C5.3793 15.0476 5.5108 15.3484 5.72598 15.5681C5.95309 15.7764 6.26392 15.9036 6.57471 15.9036ZM11.428 15.707L11.6074 15.5681C11.8225 15.3484 11.954 15.0476 11.954 14.7468C11.954 14.4463 11.8225 14.1455 11.6074 13.9258C11.2726 13.6018 10.7467 13.4978 10.3044 13.6829C10.149 13.7407 10.0175 13.8215 9.90988 13.9258C9.6947 14.1455 9.56323 14.4463 9.56323 14.7468C9.56323 15.0476 9.6947 15.3484 9.90988 15.5681C10.137 15.7764 10.4478 15.9036 10.7586 15.9036C10.8423 15.9036 10.914 15.8921 10.9977 15.8804C11.0694 15.8689 11.1411 15.8457 11.2129 15.811C11.2846 15.7878 11.3563 15.7532 11.428 15.707ZM7.24414 19.7551C7.30389 19.7205 7.36368 19.6626 7.42346 19.6165C7.63861 19.3965 7.77011 19.0959 7.77011 18.7952C7.77011 18.4944 7.63861 18.1936 7.42346 17.9739L7.24414 17.8352C7.17242 17.7888 7.10068 17.7542 7.02896 17.731C6.95724 17.6963 6.88553 17.6731 6.81378 17.6616C6.57471 17.6155 6.33563 17.6384 6.12045 17.731C5.96506 17.7888 5.84552 17.8699 5.72598 17.9739C5.5108 18.1936 5.3793 18.4944 5.3793 18.7952C5.3793 19.0959 5.5108 19.3965 5.72598 19.6165C5.84552 19.7205 5.96506 19.8015 6.12045 19.8591C6.26392 19.917 6.41931 19.9517 6.57471 19.9517C6.65839 19.9517 6.7301 19.9402 6.81378 19.9287C6.88553 19.917 6.95724 19.894 7.02896 19.8591C7.10068 19.8362 7.17242 19.8015 7.24414 19.7551ZM10.7586 19.9517C11.0694 19.9517 11.3802 19.8245 11.6074 19.6165C11.8225 19.3965 11.954 19.0959 11.954 18.7952C11.954 18.4944 11.8225 18.1936 11.6074 17.9739C11.1651 17.5459 10.3522 17.5459 9.90988 17.9739C9.6947 18.1936 9.56323 18.4944 9.56323 18.7952C9.56323 19.0959 9.6947 19.3965 9.90988 19.6165C10.137 19.8245 10.4478 19.9517 10.7586 19.9517ZM14.9425 19.9517C15.2533 19.9517 15.5641 19.8245 15.7913 19.6165C16.0064 19.3965 16.1379 19.0959 16.1379 18.7952C16.1379 18.4944 16.0064 18.1936 15.7913 17.9739C15.349 17.5459 14.5361 17.5459 14.0938 17.9739C13.8786 18.1936 13.7471 18.4944 13.7471 18.7952C13.7471 19.0959 13.8786 19.3965 14.0938 19.6165C14.3209 19.8245 14.6317 19.9517 14.9425 19.9517Z" fill="#FFFFFF" fill-opacity="1.000000" fill-rule="evenodd"/>
</svg>
